<?xml version="1.0" standalone="no"?>
<!DOCTYPE svg PUBLIC "-//W3C//DTD SVG 20010904//EN"
 "http://www.w3.org/TR/2001/REC-SVG-20010904/DTD/svg10.dtd">
<svg version="1.0" xmlns="http://www.w3.org/2000/svg"
 width="513.042892pt" height="57.184034pt" viewBox="0 0 513.042892 57.184034"
 preserveAspectRatio="xMidYMid meet">
<metadata>
Created by potrace 1.12, written by Peter Selinger 2001-2015
</metadata>
<g transform="translate(-0.144784,57.092655) scale(0.100000,-0.100000)"
fill="#000000" stroke="none">
<path d="M296 528 c-13 -24 -85 -152 -160 -285 l-135 -243 90 0 89 0 107 215
108 215 197 0 197 0 37 57 c20 31 38 62 41 70 4 11 -45 13 -271 13 l-275 0
-25 -42z"/>
<path d="M850 285 l-285 -285 101 0 100 0 39 40 39 40 178 0 178 0 0 -40 0
-41 67 3 68 3 25 278 c14 153 23 280 21 283 -2 2 -59 4 -125 4 l-121 0 -285
-285z m367 50 l-12 -110 -103 -3 c-56 -1 -102 0 -102 4 0 7 223 223 227 220 1
-1 -3 -51 -10 -111z"/>
<path d="M1697 548 c-25 -39 -297 -536 -297 -542 0 -3 38 -6 85 -6 l85 0 105
210 105 210 161 0 160 0 -6 -22 c-12 -39 -34 -48 -114 -48 -73 0 -76 -1 -178
-61 -57 -34 -106 -65 -109 -70 -3 -5 58 -9 140 -9 127 0 146 -2 146 -16 0 -9
-25 -56 -55 -105 l-55 -89 87 0 88 0 48 91 c52 98 54 122 9 137 l-27 9 40 17
c110 46 167 119 169 212 0 43 -4 59 -22 77 -22 22 -28 22 -287 25 l-264 3 -14
-23z"/>
<path d="M2345 318 c-76 -139 -147 -268 -158 -285 l-19 -33 89 0 88 0 105 210
105 210 157 0 c147 0 158 -1 158 -18 0 -37 -32 -52 -112 -52 -76 0 -77 -1
-182 -62 -58 -35 -106 -66 -106 -70 0 -5 63 -8 139 -8 87 0 142 -4 146 -10 6
-9 -37 -91 -93 -178 l-14 -22 89 0 89 0 43 88 c47 96 49 120 11 139 -24 12
-24 12 21 31 96 41 159 123 159 206 0 103 -8 106 -323 106 l-253 0 -139 -252z"/>
<path d="M3069 285 l-146 -285 278 0 279 0 35 70 35 70 -200 2 -199 3 77 137
77 138 202 0 203 0 35 70 c19 38 35 72 35 75 0 3 -127 5 -282 5 l-283 0 -146
-285z"/>
<path d="M3765 318 c-76 -139 -147 -268 -158 -285 l-19 -33 89 0 88 0 105 210
105 210 157 0 c147 0 158 -1 158 -18 0 -37 -32 -52 -112 -52 -76 0 -77 -1
-182 -62 -58 -35 -106 -66 -106 -70 0 -5 63 -8 139 -8 88 0 142 -4 146 -11 4
-5 -17 -49 -46 -97 -29 -48 -54 -90 -56 -94 -2 -5 36 -8 84 -8 l89 0 43 88
c47 96 49 120 11 139 -24 12 -24 12 22 32 57 24 121 80 142 125 9 19 16 54 16
79 0 105 -7 107 -323 107 l-254 0 -138 -252z"/>
<path d="M4600 285 l-285 -285 94 0 94 0 43 40 44 40 175 0 175 0 0 -40 0 -40
70 0 c66 0 70 1 70 23 0 27 37 434 46 500 l6 47 -124 0 -123 0 -285 -285z
m357 35 l-12 -95 -105 -3 -105 -3 115 116 c82 83 116 111 117 98 2 -10 -3 -61
-10 -113z"/>
<path d="M406 287 l-109 -72 184 -3 c101 -1 189 0 196 2 13 5 73 117 73 136 0
6 -44 10 -117 10 l-118 0 -109 -73z"/>
<path d="M3327 290 c-60 -38 -111 -71 -115 -74 -3 -3 83 -6 190 -6 l196 0 41
69 c22 38 41 72 41 75 0 3 -55 6 -122 5 l-123 0 -108 -69z"/>
</g>
</svg>
