<svg width="1079" height="118" viewBox="0 0 1079 118" fill="none" xmlns="http://www.w3.org/2000/svg">
<path d="M182 0.499973H66.5L1 117.5H37.5L81 29H165L182 0.499973Z" fill="#0D283B"/>
<path d="M106.5 45L64 74H143L157 45H106.5Z" fill="#0D283B"/>
<path d="M464 0.499973H358.5L294 117.5H330L373 29H438C438 29 439.95 30.8881 440.108 33.8958C440.266 36.9036 440.108 38.3283 438 40.5C435.892 42.6717 430.5 45 430.5 45H400L351.5 74H410C410 74 413.421 73.0385 416 76.5C418.579 79.9615 416 83 416 83L393.5 117.5H430.5L441.5 95.5C441.5 95.5 445.66 86.9806 447 84.5C448.34 82.0194 448.656 78.695 447 76.5C445.344 74.3049 444.699 73.3128 441.5 71C438.301 68.6871 435 67.5 435 67.5C435 67.5 440.768 66.552 444 65.5C447.232 64.4479 449.537 63.1427 452.5 61.5C455.463 59.8572 461.614 56.0578 464 54C466.386 51.9422 471.799 47.7142 474 45C476.201 42.2858 479 36 480 32.5C481 29 481 20 480 16C479 12 477 6.99997 474 4.49997C471 1.99997 464 0.499973 464 0.499973Z" fill="#0D283B"/>
<path d="M625 0.499973H521.5L456.5 117.5H493L537.5 29H601C601 29 604.108 32.3128 604 35C603.892 37.6871 602.799 37.7644 601 40.5C599.201 43.2356 595 45 595 45H564.5L516 74H576C576 74 579.851 75.3574 580.205 79.17C580.558 82.9826 578.5 84.5 578.5 84.5L556.5 117.5H592.5C592.5 117.5 610.185 86.6639 611.5 84.5C612.815 82.336 612.815 78.3785 611.5 76.5C610.185 74.6214 609.174 73.3128 605.5 71C601.826 68.6871 597 67.5 597 67.5C597 67.5 604.502 67.3435 608.5 65.5C612.498 63.6564 618.259 61.0579 620.571 59.5406C622.884 58.0233 629.39 54.1234 632.5 50.5C635.61 46.8765 639.251 40.2279 640.201 36.2703C641.151 32.3128 642.892 22.4981 642 19C641.108 15.5018 642.417 12.0503 637.985 6.19312C633.552 0.335981 625 0.499973 625 0.499973Z" fill="#0D283B"/>
<path d="M795.5 0.499973H676L614.5 117.5H731L746.5 89H662L695 31H780L795.5 0.499973Z" fill="#0D283B"/>
<path d="M721.5 45C706.333 54.6666 675.6 74 674 74H756L772.5 45H721.5Z" fill="#0D283B"/>
<path d="M928 0.499973H821L756 117.5H791.5L836.5 29L901 31C901 31 904.461 36.4351 901 40.5C897.539 44.5648 893 45 893 45H864.5L815.5 74H873.5C873.5 74 877.424 74.7238 878.883 79.0658C880.342 83.4078 877.5 87 877.5 87L855 117.5H893C893 117.5 907.21 89.0724 908.5 87C909.79 84.9275 912.632 81.1973 911 76.5C909.368 71.8026 908.902 73.2041 906 71C903.098 68.7958 898.5 67.5 898.5 67.5C898.5 67.5 906.771 65.7437 913.5 63C920.229 60.2562 921.869 58.461 925.954 54.9084C930.04 51.3558 934.125 47.0928 936.967 43.0073C939.809 38.9219 941.941 33.7707 942.651 27.7313C943.362 21.692 944.428 17.0737 940.698 10.5014C936.967 3.92919 928 0.499973 928 0.499973Z" fill="#0D283B"/>
<path fill-rule="evenodd" clip-rule="evenodd" d="M237.5 0.499973H289.5L279.5 117.5H252V103H176L161.5 117.5H120L237.5 0.499973ZM208.5 71L258.5 22L252 71H208.5Z" fill="#0D283B"/>
<path fill-rule="evenodd" clip-rule="evenodd" d="M1025.5 0.499973H1078.5L1068 117.5H1039V102.5H964.5L946.5 117.5H908.5L1025.5 0.499973ZM996.5 72L1044.5 24L1040.5 72H996.5Z" fill="#0D283B"/>
<path d="M182 0.499973H66.5L1 117.5H37.5L81 29H165L182 0.499973Z" stroke="#0D283B"/>
<path d="M106.5 45L64 74H143L157 45H106.5Z" stroke="#0D283B"/>
<path d="M464 0.499973H358.5L294 117.5H330L373 29H438C438 29 439.95 30.8881 440.108 33.8958C440.266 36.9036 440.108 38.3283 438 40.5C435.892 42.6717 430.5 45 430.5 45H400L351.5 74H410C410 74 413.421 73.0385 416 76.5C418.579 79.9615 416 83 416 83L393.5 117.5H430.5L441.5 95.5C441.5 95.5 445.66 86.9806 447 84.5C448.34 82.0194 448.656 78.695 447 76.5C445.344 74.3049 444.699 73.3128 441.5 71C438.301 68.6871 435 67.5 435 67.5C435 67.5 440.768 66.552 444 65.5C447.232 64.4479 449.537 63.1427 452.5 61.5C455.463 59.8572 461.614 56.0578 464 54C466.386 51.9422 471.799 47.7142 474 45C476.201 42.2858 479 36 480 32.5C481 29 481 20 480 16C479 12 477 6.99997 474 4.49997C471 1.99997 464 0.499973 464 0.499973Z" stroke="#0D283B"/>
<path d="M625 0.499973H521.5L456.5 117.5H493L537.5 29H601C601 29 604.108 32.3128 604 35C603.892 37.6871 602.799 37.7644 601 40.5C599.201 43.2356 595 45 595 45H564.5L516 74H576C576 74 579.851 75.3574 580.205 79.17C580.558 82.9826 578.5 84.5 578.5 84.5L556.5 117.5H592.5C592.5 117.5 610.185 86.6639 611.5 84.5C612.815 82.336 612.815 78.3785 611.5 76.5C610.185 74.6214 609.174 73.3128 605.5 71C601.826 68.6871 597 67.5 597 67.5C597 67.5 604.502 67.3435 608.5 65.5C612.498 63.6564 618.259 61.0579 620.571 59.5406C622.884 58.0233 629.39 54.1234 632.5 50.5C635.61 46.8765 639.251 40.2279 640.201 36.2703C641.151 32.3128 642.892 22.4981 642 19C641.108 15.5018 642.417 12.0503 637.985 6.19312C633.552 0.335981 625 0.499973 625 0.499973Z" stroke="#0D283B"/>
<path d="M795.5 0.499973H676L614.5 117.5H731L746.5 89H662L695 31H780L795.5 0.499973Z" stroke="#0D283B"/>
<path d="M721.5 45C706.333 54.6666 675.6 74 674 74H756L772.5 45H721.5Z" stroke="#0D283B"/>
<path d="M928 0.499973H821L756 117.5H791.5L836.5 29L901 31C901 31 904.461 36.4351 901 40.5C897.539 44.5648 893 45 893 45H864.5L815.5 74H873.5C873.5 74 877.424 74.7238 878.883 79.0658C880.342 83.4078 877.5 87 877.5 87L855 117.5H893C893 117.5 907.21 89.0724 908.5 87C909.79 84.9275 912.632 81.1973 911 76.5C909.368 71.8026 908.902 73.2041 906 71C903.098 68.7958 898.5 67.5 898.5 67.5C898.5 67.5 906.771 65.7437 913.5 63C920.229 60.2562 921.869 58.461 925.954 54.9084C930.04 51.3558 934.125 47.0928 936.967 43.0073C939.809 38.9219 941.941 33.7707 942.651 27.7313C943.362 21.692 944.428 17.0737 940.698 10.5014C936.967 3.92919 928 0.499973 928 0.499973Z" stroke="#0D283B"/>
<path fill-rule="evenodd" clip-rule="evenodd" d="M237.5 0.499973H289.5L279.5 117.5H252V103H176L161.5 117.5H120L237.5 0.499973ZM208.5 71L258.5 22L252 71H208.5Z" stroke="#0D283B"/>
<path fill-rule="evenodd" clip-rule="evenodd" d="M1025.5 0.499973H1078.5L1068 117.5H1039V102.5H964.5L946.5 117.5H908.5L1025.5 0.499973ZM996.5 72L1044.5 24L1040.5 72H996.5Z" stroke="#0D283B"/>
</svg>
