<svg width="994" height="715" viewBox="0 0 994 715" fill="none" xmlns="http://www.w3.org/2000/svg">
<path d="M79.5 643.5L68 650C68 650 64 646 61 644C58 642 58 641.5 54 640.5C50 639.5 48 639.5 43 639.5C38 639.5 34 640.5 30 643C26 645.5 23.5 648.5 21 651.5C18.5 654.5 16.5 660.5 16 664C15.5 667.5 15.5 674 16 677C16.5 680 17.0001 684 21 689C24.9999 694 27.5 696 31.5 698C35.5 700 40.5 701 44.5 701C48.5 701 54.5 700.5 58 699C61.5 697.5 65.5 694 65.5 694V680.5H47.5L43.5 668L80 667.5V699C80 699 72.5 705 71 706C69.5 707 62 711 58 712C54 713 48.5 714 42.5 713.5C36.5 713 30.5 712 25.5 709.5C20.5 707 16.5 704.5 12 700C7.5 695.5 5.5 692 3.5 686.5C1.5 681 1 673 1 669C1 665 2 657 5 651C8 645 11.5 640.5 15.5 637C19.5 633.5 25.8965 629.837 33.5 628C41.1035 626.163 49.2198 627.033 54 628C58.7802 628.967 65 631 69.5 634C74 637 79.5 643.5 79.5 643.5Z" fill="#2D51A6"/>
<path d="M107 712V628.5H151C153.606 629.062 159.663 631.913 162 634C164.337 636.088 166.192 638.032 167.5 640C168.808 641.968 171.248 646.096 171.817 649.648C172.386 653.201 172.149 657.636 171.817 659.387C171.485 661.138 169.8 665.846 167.66 668.967C165.521 672.088 162.87 674.232 160.139 675.776C157.407 677.32 151 679 151 679L172.5 712H156L130 667.5L146.441 667.463C150.004 666.75 150.898 665.967 152.26 665.008C153.623 664.05 155.205 661.679 155.705 660.179C156.205 658.679 156.702 656.312 156.5 653C156.298 649.688 155.717 647.25 153.074 644.607C150.43 641.963 149.249 641.851 146 641H121.5V712H107Z" fill="#2D51A6"/>
<path d="M211.5 628.5H197.5L197 683.5C197.202 685.836 199.06 691.875 200.254 694.198C201.449 696.521 204.208 700.978 206.36 703.488C208.511 705.999 212.664 709.129 216.38 710.722C220.096 712.315 224.543 712.779 226.467 712.845C228.391 712.912 235.492 713.31 239.275 712.978C243.057 712.646 248.366 711.319 251.021 710.324C253.675 709.328 259.05 706.077 261.705 703.82C264.359 701.564 266.616 698.18 268.208 694.662C269.801 691.145 270.796 685.704 271 683.5V628.5H256V683.5C255.732 686.765 254.471 689.619 253.609 691.079C252.746 692.539 250.556 695.26 248.632 696.72C246.707 698.18 243.124 699.971 240.867 700.569C238.611 701.166 233.302 700.9 230.515 700.701C227.728 700.502 223.481 699.109 221.689 697.981C219.897 696.852 216.778 693.932 215.5 692C214.222 690.068 212.199 687.296 211.5 683.5V628.5Z" fill="#2D51A6"/>
<path d="M342.5 628.5H300L299.5 712H314V640.5H338.5C341.271 641.455 344.484 643.505 346.479 645.444C348.473 647.384 349.36 650.652 349.748 654.032C350.136 657.412 348.972 660.736 347.809 662.62C346.645 664.504 342.656 667.329 339.5 668.5H326.5L333.5 680.5C333.5 680.5 344.817 679.795 348.086 678.687C351.354 677.579 355.51 674.643 357.671 672.703C359.831 670.764 362.38 666.886 363.599 663.617C364.818 660.348 365.206 655.417 365.039 651.705C364.873 647.993 362.484 642.632 360.718 639.959C358.951 637.287 355.399 633.976 353 632.5C350.601 631.024 344.651 628.989 342.5 628.5Z" fill="#2D51A6"/>
<path d="M546 629H529.5L563 712H581.5L615 629H599L572.5 696L546 629Z" fill="#2D51A6"/>
<path d="M739.5 628.5H725V694.5L732.5 712H777.5V699.5H739.5V628.5Z" fill="#2D51A6"/>
<path d="M853 649.5L861.5 638.5C861.5 638.5 851.214 631.57 848.069 630.272C844.924 628.975 838.265 627.325 833.779 627.196C829.294 627.068 821.989 627.453 817.5 629C813.011 630.547 809.301 632.579 806 635C802.699 637.421 800.455 641.906 799.625 645.01C798.795 648.115 798.343 653.02 799.5 658.5C800.842 661.863 804.54 667.001 808.468 669.361C812.396 671.72 816.463 673.283 820.323 674.231C824.182 675.179 831.216 676.345 835.766 677.755C840.315 679.165 845.057 681.279 847.236 684.355C849.415 687.431 848.646 692.365 846.851 695.249C844.16 699.157 837.688 700.503 833.715 700.695C830.681 700.756 825 701.336 817.5 699.5C813.018 698.068 804 690 804 690L795.5 700.5C795.5 700.5 802.109 705.423 805 707C808.276 708.833 813.473 710.809 818.5 712C823.527 713.191 832.386 713.052 836.727 712.935C841.067 712.818 846.527 711.794 850.44 709.602C854.353 707.41 860.065 701.866 861.5 697.5C862.935 693.134 864.09 687.502 863 682.5C861.91 677.499 857.04 671.796 853.836 669.809C850.632 667.823 838.713 663.529 837 663C835.287 662.471 821.86 659.044 820.5 658.5C819.14 657.956 814.299 656.417 813.658 652.187C813.018 647.958 814.107 645.267 817.631 642.447C822.501 640.076 823.591 640.397 828.589 640.012C834.036 640.14 839.558 641.528 842.5 642.5C845.442 643.473 853 649.5 853 649.5Z" fill="#2D51A6"/>
<path fill-rule="evenodd" clip-rule="evenodd" d="M428.659 626.758C437.866 626.813 444 629.5 444 629.5C444 629.5 452.765 633.5 455.5 636C458.235 638.5 461.548 642.646 464 646.5C466.452 650.354 470.62 661.065 470.786 665.223C471.576 671.07 470.232 679.26 469.5 681.5C469.389 681.839 469.252 682.32 469.084 682.909C468.14 686.215 466.228 692.912 462.673 696.727C458.791 702.345 452.867 706.737 448.781 708.882C446.264 710.419 436.728 713.377 432 713.5C427.272 713.624 419.466 713.785 412.5 711.5C405.534 709.215 401.999 706.431 398.322 702.754C398.073 702.505 397.827 702.259 397.582 702.015C394.205 698.651 391.182 695.639 388.5 690.5C385.624 684.988 384.226 676.503 384 672C383.774 667.498 384.586 657.587 386.5 653C388.414 648.413 392.193 641.978 397.096 637.892C401.999 633.806 405.472 631.866 410.988 629.721L411.281 629.618C417.194 627.548 419.6 626.705 428.659 626.758ZM442.653 644.021C438.158 641.672 432.438 639.22 424.573 639.935C416.708 640.65 411.703 643.51 408 646.5C404.297 649.49 400.978 656.074 399.65 660.466C398.322 664.858 397.811 671.498 398.731 676.503C399.65 681.508 403.429 689.271 406.187 691.722C408.945 694.174 413.71 698.264 418.751 699.894C423.792 701.524 430.495 701.43 435.911 699.996C441.327 698.561 445.717 695.399 449.598 691.211C452.823 687.733 454.214 682.351 455.296 678.169C455.516 677.317 455.724 676.514 455.931 675.788C456.748 670.272 455.931 662.917 454.501 658.627C453.071 654.337 447.147 646.37 442.653 644.021Z" fill="#2D51A6"/>
<path fill-rule="evenodd" clip-rule="evenodd" d="M653.5 629H672L705 712H689L683 696.5L642.5 695.5L635.5 712H619.5L653.5 629ZM679 683.5L662.5 641.5L646.5 683.5H679Z" fill="#2D51A6"/>
<path fill-rule="evenodd" clip-rule="evenodd" d="M911 629H930L963 711.5H947L940 696H899.5L893 711.5H877.5L911 629ZM904 683.5L920 641.5L936.5 683.5H904Z" fill="#2D51A6"/>
<path d="M410.988 629.721C405.472 631.866 401.999 633.806 397.096 637.892C392.193 641.978 388.414 648.413 386.5 653C384.586 657.587 383.774 667.498 384 672C384.226 676.503 385.624 684.988 388.5 690.5C391.182 695.639 394.205 698.651 397.582 702.015C397.827 702.259 398.073 702.505 398.322 702.754C401.999 706.431 405.534 709.215 412.5 711.5C419.466 713.785 427.272 713.624 432 713.5C436.728 713.377 446.264 710.419 448.781 708.882C452.867 706.737 458.791 702.345 462.673 696.727C466.228 692.912 468.14 686.215 469.084 682.909C469.252 682.32 469.389 681.839 469.5 681.5C470.231 679.26 471.576 671.07 470.786 665.223C470.62 661.065 466.452 650.354 464 646.5C461.548 642.646 458.235 638.5 455.5 636C452.765 633.5 444 629.5 444 629.5C444 629.5 437.866 626.813 428.659 626.758C419.6 626.705 417.194 627.548 411.281 629.618M410.988 629.721L411.281 629.618M410.988 629.721C411.087 629.686 411.184 629.652 411.281 629.618M993.235 700.685C993.178 699.321 991.871 695.628 989.826 694.264C987.78 692.901 986.246 692.276 983 692.5C979.754 692.724 978.633 693.412 976.815 694.946C974.997 696.48 974.088 699.832 974.088 702.616C974.088 705.4 975.395 708.468 977.951 710.173C980.508 711.877 984.315 711.65 986.474 711.309C988.633 710.968 990.962 709.207 992.212 706.934C993.411 704.754 993.303 702.259 993.242 700.856M993.235 700.685L993.242 700.856M993.235 700.685C993.237 700.74 993.24 700.797 993.242 700.856M984.5 702.5C984.5 702.5 985.858 702.319 986.5 702C987.142 701.681 987.647 700.866 987.553 699.719C987.46 698.571 987.301 698.186 985.849 697.446L980 697.5V702.5M984.5 702.5L987.5 707.5M984.5 702.5H980M980 707.5V702.5M68 650L79.5 643.5C79.5 643.5 74 637 69.5 634C65 631 58.7802 628.967 54 628C49.2198 627.033 41.1035 626.163 33.5 628C25.8965 629.837 19.5 633.5 15.5 637C11.5 640.5 8 645 5 651C2 657 1 665 1 669C1 673 1.5 681 3.5 686.5C5.5 692 7.5 695.5 12 700C16.5 704.5 20.5 707 25.5 709.5C30.5 712 36.5 713 42.5 713.5C48.5 714 54 713 58 712C62 711 69.5 707 71 706C72.5 705 80 699 80 699V667.5L43.5 668L47.5 680.5H65.5V694C65.5 694 61.5 697.5 58 699C54.5 700.5 48.5 701 44.5 701C40.5 701 35.5 700 31.5 698C27.5 696 24.9999 694 21 689C17.0001 684 16.5 680 16 677C15.5 674 15.5 667.5 16 664C16.5 660.5 18.5 654.5 21 651.5C23.5 648.5 26 645.5 30 643C34 640.5 38 639.5 43 639.5C48 639.5 50 639.5 54 640.5C58 641.5 58 642 61 644C64 646 68 650 68 650ZM107 628.5V712H121.5V641H146C149.249 641.851 150.43 641.963 153.074 644.607C155.717 647.25 156.298 649.688 156.5 653C156.702 656.312 156.205 658.679 155.705 660.179C155.205 661.679 153.623 664.05 152.26 665.008C150.898 665.967 150.004 666.75 146.441 667.463L130 667.5L156 712H172.5L151 679C151 679 157.407 677.32 160.139 675.776C162.87 674.232 165.521 672.088 167.66 668.967C169.8 665.846 171.485 661.138 171.817 659.387C172.149 657.636 172.386 653.201 171.817 649.648C171.248 646.096 168.808 641.968 167.5 640C166.192 638.032 164.337 636.088 162 634C159.663 631.913 153.606 629.062 151 628.5H107ZM197.5 628.5H211.5V683.5C212.199 687.296 214.222 690.068 215.5 692C216.778 693.932 219.897 696.852 221.689 697.981C223.481 699.109 227.728 700.502 230.515 700.701C233.302 700.9 238.611 701.166 240.867 700.569C243.124 699.971 246.707 698.18 248.632 696.72C250.556 695.26 252.746 692.539 253.609 691.079C254.471 689.619 255.732 686.765 256 683.5V628.5H271V683.5C270.796 685.704 269.801 691.145 268.208 694.662C266.616 698.18 264.359 701.564 261.705 703.82C259.05 706.077 253.675 709.328 251.021 710.324C248.366 711.319 243.057 712.646 239.275 712.978C235.492 713.31 228.391 712.912 226.467 712.845C224.543 712.779 220.096 712.315 216.38 710.722C212.664 709.129 208.511 705.999 206.36 703.488C204.208 700.978 201.449 696.521 200.254 694.198C199.06 691.875 197.202 685.836 197 683.5L197.5 628.5ZM300 628.5H342.5C344.651 628.989 350.601 631.024 353 632.5C355.399 633.976 358.951 637.287 360.718 639.959C362.484 642.632 364.873 647.993 365.039 651.705C365.206 655.417 364.818 660.348 363.599 663.617C362.38 666.886 359.831 670.764 357.671 672.703C355.51 674.643 351.354 677.579 348.086 678.687C344.817 679.795 333.5 680.5 333.5 680.5L326.5 668.5H339.5C342.656 667.329 346.645 664.504 347.809 662.62C348.972 660.736 350.136 657.412 349.748 654.032C349.36 650.652 348.473 647.384 346.479 645.444C344.484 643.505 341.271 641.455 338.5 640.5H314V712H299.5L300 628.5ZM424.573 639.935C432.438 639.22 438.158 641.672 442.653 644.021C447.147 646.37 453.071 654.337 454.501 658.627C455.931 662.917 456.748 670.272 455.931 675.788C455.724 676.514 455.516 677.317 455.296 678.169C454.214 682.351 452.823 687.733 449.598 691.211C445.717 695.399 441.327 698.561 435.911 699.996C430.495 701.43 423.792 701.524 418.751 699.894C413.71 698.264 408.945 694.174 406.187 691.722C403.429 689.271 399.65 681.508 398.731 676.503C397.811 671.498 398.322 664.858 399.65 660.466C400.978 656.074 404.297 649.49 408 646.5C411.703 643.51 416.708 640.65 424.573 639.935ZM529.5 629H546L572.5 696L599 629H615L581.5 712H563L529.5 629ZM653.5 629H672L705 712H689L683 696.5L642.5 695.5L635.5 712H619.5L653.5 629ZM662.5 641.5L679 683.5H646.5L662.5 641.5ZM725 628.5H739.5V699.5H777.5V712H732.5L725 694.5V628.5ZM861.5 638.5L853 649.5C853 649.5 845.442 643.473 842.5 642.5C839.558 641.528 834.036 640.14 828.589 640.012C823.591 640.397 822.501 640.076 817.631 642.447C814.107 645.267 813.018 647.958 813.658 652.187C814.299 656.417 819.14 657.956 820.5 658.5C821.86 659.044 835.287 662.471 837 663C838.713 663.529 850.632 667.823 853.836 669.809C857.04 671.796 861.91 677.499 863 682.5C864.09 687.502 862.935 693.134 861.5 697.5C860.065 701.866 854.353 707.41 850.44 709.602C846.527 711.794 841.067 712.818 836.727 712.935C832.386 713.052 823.527 713.191 818.5 712C813.473 710.809 808.276 708.833 805 707C802.109 705.423 795.5 700.5 795.5 700.5L804 690C804 690 813.018 698.068 817.5 699.5C825 701.336 830.681 700.756 833.715 700.695C837.688 700.503 844.16 699.157 846.851 695.249C848.646 692.365 849.415 687.431 847.236 684.355C845.057 681.279 840.315 679.165 835.766 677.755C831.216 676.345 824.182 675.179 820.323 674.231C816.463 673.283 812.396 671.72 808.468 669.361C804.54 667.001 800.842 661.863 799.5 658.5C798.343 653.02 798.795 648.115 799.625 645.01C800.455 641.906 802.699 637.421 806 635C809.301 632.579 813.011 630.547 817.5 629C821.989 627.453 829.294 627.068 833.779 627.196C838.265 627.325 844.924 628.975 848.069 630.272C851.214 631.57 861.5 638.5 861.5 638.5ZM911 629H930L963 711.5H947L940 696H899.5L893 711.5H877.5L911 629ZM920 641.5L904 683.5H936.5L920 641.5Z" stroke="#2D51A6"/>
<circle cx="482" cy="251.5" r="34" fill="#2D51A6" stroke="black"/>
<path d="M561.5 1H539.5L482 98L426.5 1H405L385.5 34.5L469 175.5H497L579.5 34.5L561.5 1Z" fill="#2D51A6"/>
<path d="M659 59H622.5L542 200L556.5 224.5H720.5L738.5 193.5L727.5 175.5H614L671.5 77.5L659 59Z" fill="#2D51A6"/>
<path d="M738.5 308L720.5 278.5H556.5L543.5 302.5L624 445H660L670 425.5L614 329H727.5L738.5 308Z" fill="#2D51A6"/>
<path d="M560.5 502L579 471.5L496.5 329H468L387 471.5L404 502H425.5L481.5 404L539 502H560.5Z" fill="#2D51A6"/>
<path d="M422.5 302.5L407.5 278.5H245L227 309.5L239 329H349L294.5 428L306 445H341.5L422.5 302.5Z" fill="#2D51A6"/>
<path d="M422.5 200L407.5 224.5H245L227 194.5L238.5 175.5H349.5L294 76L305.5 59H341.5L422.5 200Z" fill="#2D51A6"/>
<path d="M561.5 1H539.5L482 98L426.5 1H405L385.5 34.5L469 175.5H497L579.5 34.5L561.5 1Z" stroke="#2D51A6"/>
<path d="M659 59H622.5L542 200L556.5 224.5H720.5L738.5 193.5L727.5 175.5H614L671.5 77.5L659 59Z" stroke="#2D51A6"/>
<path d="M738.5 308L720.5 278.5H556.5L543.5 302.5L624 445H660L670 425.5L614 329H727.5L738.5 308Z" stroke="#2D51A6"/>
<path d="M560.5 502L579 471.5L496.5 329H468L387 471.5L404 502H425.5L481.5 404L539 502H560.5Z" stroke="#2D51A6"/>
<path d="M422.5 302.5L407.5 278.5H245L227 309.5L239 329H349L294.5 428L306 445H341.5L422.5 302.5Z" stroke="#2D51A6"/>
<path d="M422.5 200L407.5 224.5H245L227 194.5L238.5 175.5H349.5L294 76L305.5 59H341.5L422.5 200Z" stroke="#2D51A6"/>
</svg>
