<?xml version="1.0" standalone="no"?>
<!DOCTYPE svg PUBLIC "-//W3C//DTD SVG 20010904//EN"
 "http://www.w3.org/TR/2001/REC-SVG-20010904/DTD/svg10.dtd">
<svg version="1.0" xmlns="http://www.w3.org/2000/svg"
 width="278.500000pt" height="178.006992pt" viewBox="0 0 278.500000 178.006992"
 preserveAspectRatio="xMidYMid meet">
<metadata>
Created by potrace 1.12, written by Peter Selinger 2001-2015
</metadata>
<g transform="translate(-3.000000,182.000000) scale(0.100000,-0.100000)"
fill="#000000" stroke="none">
<path d="M62 1787 c-25 -26 -32 -42 -32 -73 0 -33 7 -46 38 -77 31 -30 45 -37
78 -37 32 0 46 6 72 33 26 27 32 41 32 78 0 38 -5 50 -33 77 -27 26 -41 32
-78 32 -38 0 -50 -5 -77 -33z"/>
<path d="M372 1747 c-63 -64 -72 -77 -72 -110 l0 -37 110 0 110 0 0 110 0 110
-38 0 c-33 0 -45 -8 -110 -73z"/>
<path d="M612 1787 c-27 -27 -32 -41 -32 -79 0 -40 5 -50 35 -77 27 -23 45
-31 75 -31 30 0 48 8 75 31 31 27 35 37 35 78 0 40 -5 52 -33 79 -27 26 -41
32 -78 32 -38 0 -50 -5 -77 -33z"/>
<path d="M102 1477 c-63 -64 -72 -77 -72 -110 l0 -37 110 0 110 0 0 110 0 110
-38 0 c-33 0 -45 -8 -110 -73z"/>
<path d="M310 1512 c0 -33 8 -45 73 -110 60 -59 78 -72 105 -72 l32 0 0 110 0
110 -105 0 -105 0 0 -38z"/>
<path d="M580 1440 l0 -110 105 0 105 0 0 38 c0 33 -8 45 -73 110 -60 59 -78
72 -105 72 l-32 0 0 -110z"/>
<path d="M30 1170 l0 -110 33 0 c27 0 45 12 110 78 64 64 77 83 77 110 l0 32
-110 0 -110 0 0 -110z"/>
<path d="M341 1254 c-57 -47 -50 -137 13 -175 37 -23 67 -24 106 -4 40 21 60
53 60 98 0 31 -7 46 -34 73 -44 44 -99 47 -145 8z"/>
<path d="M570 1170 l0 -110 37 0 c33 0 46 9 110 72 65 65 73 77 73 110 l0 38
-110 0 -110 0 0 -110z"/>
<path d="M677 856 c-72 -27 -97 -66 -97 -151 0 -69 19 -107 64 -129 67 -32
176 -11 193 37 6 20 7 19 12 -8 5 -26 11 -30 44 -33 l37 -3 0 75 0 76 -90 0
c-83 0 -90 -1 -90 -20 0 -17 7 -20 45 -20 49 0 55 -8 27 -33 -24 -22 -100 -22
-130 -1 -30 21 -32 102 -2 129 26 24 103 25 128 2 17 -16 112 -25 112 -12 0
21 -36 67 -62 81 -44 23 -144 28 -191 10z"/>
<path d="M2186 860 c-89 -27 -135 -147 -86 -227 29 -48 63 -65 139 -71 128 -9
194 44 195 155 0 64 -22 99 -84 131 -46 23 -110 28 -164 12z m137 -87 c62 -69
-4 -161 -95 -133 -60 17 -78 82 -36 127 27 29 106 33 131 6z"/>
<path d="M2544 851 c-45 -20 -54 -35 -54 -87 0 -46 30 -64 132 -76 46 -5 89
-16 97 -23 43 -41 -81 -65 -132 -25 -30 24 -107 28 -107 6 0 -25 41 -65 78
-76 47 -13 136 -13 183 0 48 13 73 43 73 86 0 56 -27 75 -130 86 -97 12 -126
26 -104 52 17 21 103 21 124 1 14 -14 106 -22 106 -10 0 3 -7 16 -16 30 -35
53 -169 73 -250 36z"/>
<path d="M30 715 l0 -145 40 0 40 0 0 145 0 145 -40 0 -40 0 0 -145z"/>
<path d="M180 715 l0 -145 45 0 44 0 3 94 3 95 78 -95 c77 -93 79 -94 123 -94
l44 0 0 146 0 145 -42 -3 -41 -3 2 -87 c1 -49 -2 -88 -7 -88 -4 0 -41 41 -82
90 l-74 90 -48 0 -48 0 0 -145z"/>
<path d="M990 715 l0 -145 145 0 145 0 0 30 0 29 -102 3 -103 3 -3 28 -3 27
90 0 c90 0 91 0 91 25 0 25 -1 25 -90 25 l-90 0 0 30 0 30 100 0 100 0 0 30 0
30 -140 0 -140 0 0 -145z"/>
<path d="M1360 715 l0 -145 43 0 42 0 -3 95 c-2 52 0 95 5 95 4 -1 42 -43 83
-95 l75 -94 48 -1 47 0 0 145 0 145 -45 0 -44 0 -3 -92 -3 -92 -75 91 -75 92
-47 0 -48 1 0 -145z"/>
<path d="M1750 826 l0 -35 53 -3 52 -3 0 -70 0 -70 -52 -3 -53 -3 0 -35 0 -34
145 0 145 0 0 35 0 35 -50 0 -51 0 3 73 3 72 48 3 c46 3 47 4 47 38 l0 34
-145 0 -145 0 0 -34z"/>
<path d="M642 480 c-56 -34 -65 -104 -17 -136 13 -8 63 -19 112 -24 48 -5 89
-10 89 -10 1 0 4 -7 8 -15 8 -22 -21 -45 -59 -45 -37 0 -85 18 -85 32 0 4 -22
8 -50 8 -58 0 -65 -16 -26 -55 60 -60 229 -60 285 -1 17 18 22 33 19 61 -4 55
-36 75 -131 82 -88 7 -119 21 -98 47 17 21 100 22 127 1 10 -8 38 -15 62 -15
l43 0 -15 29 c-22 42 -71 61 -158 61 -55 0 -81 -5 -106 -20z"/>
<path d="M2160 478 c-73 -37 -100 -121 -66 -203 40 -95 231 -114 304 -31 69
79 42 202 -54 242 -51 21 -132 18 -184 -8z m156 -72 c34 -28 38 -84 9 -116
-26 -29 -100 -28 -132 2 -38 36 -27 109 20 128 39 15 75 11 103 -14z"/>
<path d="M2543 485 c-17 -7 -36 -22 -42 -34 -13 -23 -14 -70 -3 -88 13 -21 79
-43 129 -44 64 -1 97 -12 101 -31 8 -39 -98 -50 -137 -14 -20 18 -111 22 -111
6 0 -22 32 -59 63 -71 47 -20 184 -18 224 3 62 34 64 123 4 148 -14 6 -61 14
-105 19 -86 10 -107 21 -86 46 17 20 113 21 130 0 13 -16 100 -22 100 -7 0 19
-35 55 -66 68 -42 18 -159 17 -201 -1z"/>
<path d="M30 265 l0 -225 1393 2 1392 3 0 35 0 35 -1352 3 -1353 2 0 185 0
185 -40 0 -40 0 0 -225z"/>
<path d="M1067 463 c-19 -37 -117 -254 -117 -259 0 -2 20 -4 43 -4 37 0 46 4
55 25 11 23 16 25 87 25 71 0 76 -1 85 -25 8 -22 16 -25 54 -25 l45 0 -14 32
c-7 18 -36 83 -63 143 l-50 110 -55 3 c-52 3 -57 1 -70 -25z m107 -130 c7 -22
4 -23 -38 -23 -25 0 -46 4 -46 9 0 5 9 31 21 58 l21 48 18 -35 c9 -19 21 -45
24 -57z"/>
<path d="M1360 344 l0 -145 41 3 42 3 -2 93 c-1 50 2 92 6 92 5 0 44 -43 87
-96 77 -95 78 -95 119 -92 l42 3 3 143 3 142 -45 0 -45 0 -3 -91 -3 -91 -74
91 -75 91 -48 0 -48 0 0 -146z"/>
<path d="M1750 455 l0 -35 50 0 50 0 0 -110 0 -110 45 0 45 0 0 110 0 110 55
0 55 0 0 35 0 35 -150 0 -150 0 0 -35z"/>
</g>
</svg>
