<svg width="1080" height="235" viewBox="0 0 1080 235" fill="none" xmlns="http://www.w3.org/2000/svg">
<path fill-rule="evenodd" clip-rule="evenodd" d="M176.838 100.967C176.837 100.964 176.837 100.962 176.837 100.96L176.838 100.967ZM178.242 151.892C178.241 151.897 178.241 151.901 178.24 151.905L178.242 151.892ZM115.161 79.1563C115.161 79.1563 95.7949 106.128 87.7286 125.581C85.8579 130.093 84.2953 131.495 83.3164 137.283C82.3375 143.072 83.1839 147.263 84.0837 150.52C84.9835 153.777 87.0513 158.558 89.0715 161.071C91.0917 163.584 93.1138 165.706 96.3613 167.785C99.6088 169.865 103.118 171.771 106.912 172.581C110.707 173.392 114.61 173.101 118.423 172.773C122.235 172.446 127.372 171.521 131.084 169.704C134.796 167.886 138.211 164.705 140.676 161.263C143.141 157.82 144.785 155.376 145.855 151.479C146.926 147.583 147.338 144.802 147.39 141.504L147.392 141.406C147.443 138.159 147.48 135.82 145.664 131.528C143.829 127.193 115.161 79.1563 115.161 79.1563ZM108.04 42.2802C109.936 40.5629 116.892 34.5925 120.725 32.1561C124.558 29.7197 126.658 28.7395 130.125 27.552C133.591 26.3644 136.322 25.772 139.613 26.6225C142.905 27.4731 145.318 28.9393 148.13 33.7631C150.778 38.3044 154.618 54.0429 155.668 58.3479C155.669 58.3515 155.67 58.3551 155.671 58.3587C155.735 58.6218 155.789 58.8418 155.831 59.0133C156.562 61.9814 160.627 84.7196 160.627 84.7196C160.627 84.7196 164.914 113.096 165.039 117.908C165.165 122.72 165.014 144.736 164.272 149.944C163.53 155.153 156.648 172.187 153.913 176.994C151.178 181.8 145.808 189.308 142.211 192.532C138.613 195.757 130.408 201.094 127.247 202.508C124.086 203.922 113.976 207.03 110.174 207.688C106.371 208.345 96.5117 207.804 89.2633 205.961C82.9745 204.362 80.2787 201.983 76.4319 198.59C75.8449 198.072 75.2311 197.53 74.5737 196.965C69.8114 192.865 66.8248 185.709 64.9433 181.202C64.8629 181.009 64.7845 180.821 64.7081 180.638C62.8434 176.185 61.7551 164.961 61.4469 160.687C61.1387 156.414 61.583 148.443 62.0224 144.189C62.1322 143.126 62.2672 141.672 62.4209 140.016C62.8819 135.051 63.5109 128.276 64.1326 124.814C64.9616 120.197 68.0353 108.18 70.0796 103.328C72.1238 98.4756 76.882 87.9149 78.1367 85.487C79.3915 83.0591 85.0746 72.1973 86.5776 69.7563C86.8366 69.3356 87.1968 68.7393 87.6319 68.0189C89.721 64.5599 93.5365 58.2423 96.1695 54.7929C99.3507 50.6253 106.144 43.9976 108.04 42.2802Z" fill="#F5BD32"/>
<path fill-rule="evenodd" clip-rule="evenodd" d="M81 53.4999C83.1768 49.851 96.0507 31.3048 100.641 26.4505C105.232 21.5962 115.763 11.5485 117.933 9.84644C120.104 8.14439 127.795 2.30518 132.5 0.999931C137.204 -0.305321 142.817 -0.118454 146.066 0.727103C149.315 1.57266 155.357 6.31916 158.454 12.4274C161.551 18.5356 164.5 31.9999 164.5 31.9999C164.5 31.9999 167.878 45.74 168.5 48.9999C169.122 52.2599 172.821 73.3375 175 88.5C175.589 92.6017 176.139 96.2937 176.631 99.5821L176.837 100.96L176.838 100.967L176.838 100.972C178.051 109.073 178.87 114.548 179 117.5C179.188 121.773 179.79 143.109 179 147.5C178.823 148.482 178.58 149.906 178.297 151.569L178.242 151.892L178.24 151.905C177.258 157.674 175.831 166.055 175 169C173.909 172.867 169.638 185.35 167.5 189.5C165.362 193.65 159.315 203.073 157 206C154.685 208.927 149.077 215.203 145.5 218C141.923 220.797 134.021 224.925 131 226.5C127.979 228.075 115.869 231.893 113.5 232.5C111.131 233.107 104.513 234.13 98.5 234C92.4874 233.87 88.1391 233.459 81.7143 230.947C75.2895 228.435 73.5554 227.124 69.4979 223.978C65.4403 220.833 62.7874 218.128 59 213C55.607 208.406 54.2903 204.628 52.9656 200.828C52.8116 200.386 52.6575 199.944 52.5 199.5C50.9877 195.239 48.5062 185.178 48 180C47.588 175.786 47.783 167.957 47.9217 162.392C47.9534 161.12 47.9821 159.965 48 159C48.096 153.813 49.9688 138.033 50.5 134C51.0312 129.967 53.5465 116.884 55.5 111.5C55.9728 110.197 56.6378 108.33 57.3998 106.19C59.7861 99.4906 63.1245 90.1173 64.5 87C66.3147 82.887 69.3939 76.5236 72.5 70.5C73.789 68.0002 75.0971 65.2759 76.3421 62.6831C78.0971 59.0281 79.7265 55.6346 81 53.4999ZM120.725 32.1561C116.892 34.5925 109.936 40.5629 108.04 42.2802C106.144 43.9976 99.3507 50.6253 96.1695 54.7929C93.5365 58.2423 89.721 64.5599 87.6319 68.0189C87.1968 68.7393 86.8366 69.3356 86.5776 69.7563C85.0746 72.1973 79.3915 83.0591 78.1367 85.487C76.882 87.9149 72.1238 98.4756 70.0796 103.328C68.0353 108.18 64.9616 120.197 64.1326 124.814C63.5109 128.276 62.8819 135.051 62.4209 140.016C62.2672 141.672 62.1322 143.126 62.0224 144.189C61.583 148.443 61.1387 156.414 61.4469 160.687C61.7551 164.961 62.8434 176.185 64.7081 180.638C64.7845 180.821 64.8629 181.009 64.9433 181.202C66.8248 185.709 69.8114 192.865 74.5737 196.965C75.2311 197.53 75.8449 198.072 76.4319 198.59C80.2787 201.983 82.9745 204.362 89.2633 205.961C96.5117 207.804 106.371 208.345 110.174 207.688C113.976 207.03 124.086 203.922 127.247 202.508C130.408 201.094 138.613 195.757 142.211 192.532C145.808 189.308 151.178 181.8 153.913 176.994C156.648 172.187 163.53 155.153 164.272 149.944C165.014 144.736 165.165 122.72 165.039 117.908C164.914 113.096 160.627 84.7196 160.627 84.7196C160.627 84.7196 156.562 61.9814 155.831 59.0133C155.789 58.8418 155.735 58.6218 155.671 58.3587L155.668 58.3479C154.618 54.0429 150.778 38.3044 148.13 33.7631C145.318 28.9393 142.905 27.4731 139.613 26.6225C136.322 25.772 133.591 26.3644 130.125 27.552C126.658 28.7395 124.558 29.7197 120.725 32.1561Z" fill="#FFDA7F"/>
<path fill-rule="evenodd" clip-rule="evenodd" d="M39.5236 82.8381C42.2747 80.1931 50 73.5 54 70.5C58 67.5 71.7134 58.9396 71.7134 58.9396C71.7134 58.9396 76.0258 56.4576 80.8242 53.7986C85.3744 51.2771 90.3616 48.5964 92.523 47.7219C96.9638 45.9251 104.066 43.4949 104.066 43.4949C104.066 43.4949 105.682 43.0054 107.976 42.3383C112.244 41.0972 118.86 39.2416 121.787 38.7802C126.286 38.0708 132.652 37.193 137.556 36.9919C140.839 36.8574 145.411 36.9655 149.683 37.2537C151.793 37.396 153.83 37.5823 155.602 37.8048C158.692 38.193 162.803 39.1294 166.483 40.1822C169.187 40.9556 171.659 41.7918 173.323 42.5195C177.252 44.2379 186.977 49.5126 190.231 52.1114C193.484 54.7103 199.82 62.7184 202.586 66.7432C205.353 70.7679 210.489 82.1125 211.528 84.789C212.567 87.4656 215.137 96.7662 215.917 101.047C216.698 105.327 217.632 119.039 217.543 123.644C217.454 128.25 216.362 139.71 215.105 145.267C213.847 150.823 210.129 164.735 208.439 169.328C206.749 173.921 202.424 182.842 200.31 186.236C198.197 189.629 192.275 198.721 189.418 201.68C186.561 204.64 180.103 211.214 177.387 213.386C174.672 215.557 166.14 219.999 163.081 221.352C160.021 222.705 148.278 226.341 145.685 226.717C143.092 227.093 138.271 227.505 133.817 227.367C132.67 227.332 131.234 227.235 129.681 227.101C125.203 226.714 119.763 226.015 117.56 225.579C114.593 224.991 105.458 222.967 99.3512 221.189C94.2833 219.715 89.5719 217.744 84.5795 215.657L84.5748 215.655L84.5678 215.652C83.5481 215.226 82.5166 214.794 81.4679 214.361C75.2809 211.807 61.3086 204.769 61.3086 204.769L52.9392 200.752L45.0511 196.966C45.0511 196.966 29.5914 189.513 26.5176 187.699C23.4437 185.885 16.3846 180.321 13.5116 177.619C10.6386 174.918 5.33044 167.114 4.40739 165.426C3.48434 163.739 0.966949 158.387 0.668187 154.859C0.369425 151.331 0.472163 143.43 1.15591 140.552C1.83965 137.675 3.65234 130.83 6.03315 125.758C8.41397 120.686 13.1577 113.25 14.9748 110.801C15.4947 110.1 16.3518 108.904 17.3651 107.489C19.8933 103.958 23.3938 99.0705 25.0544 97.1447C27.3806 94.4472 30.6111 91.2852 32.3703 89.6663C33.7805 88.3686 35.7585 86.4634 37.905 84.3961C38.4362 83.8845 38.9778 83.3629 39.5236 82.8381ZM87.7286 125.581C95.7949 106.128 115.161 79.1563 115.161 79.1563C115.161 79.1563 143.829 127.193 145.664 131.528C147.48 135.82 147.443 138.159 147.392 141.406L147.39 141.504C147.338 144.802 146.926 147.583 145.855 151.479C144.785 155.376 143.141 157.82 140.676 161.263C138.211 164.705 134.796 167.886 131.084 169.704C127.372 171.521 122.235 172.446 118.423 172.773C114.61 173.101 110.707 173.392 106.912 172.581C103.118 171.771 99.6088 169.865 96.3613 167.785C93.1138 165.706 91.0917 163.584 89.0715 161.071C87.0513 158.558 84.9835 153.777 84.0837 150.52C83.1839 147.263 82.3375 143.072 83.3164 137.283C83.9919 133.289 84.9454 131.383 86.0864 129.103C86.5987 128.079 87.1489 126.979 87.7286 125.581Z" fill="#FEBA14" fill-opacity="0.9" style="mix-blend-mode:multiply"/>
<path d="M388.5 141.347V10.3673H479V38.5H422V61H477V90H422V112H480.5V141.347H388.5Z" fill="#01437F"/>
<path d="M490 38.5V10.3673H594.5V38.5H560V141.347H525V38.5H490Z" fill="#01437F"/>
<path d="M931.5 11H898V141.347H931.5V11Z" fill="#01437F"/>
<path d="M996 11H963V141.347H1045.5V111.5H996V11Z" fill="#01437F"/>
<path d="M304.5 181.5H299V215H304.5V181.5Z" fill="#01437F"/>
<path d="M330.5 188.5L333.5 184.5C333.5 184.5 331.757 183.104 330.5 182.5C329.243 181.896 327.921 181.366 326.962 181.066C326.003 180.766 324.624 180.467 323.485 180.467C322.346 180.467 320.128 180.227 318.87 180.467C317.611 180.706 316.532 181.066 315.153 181.845C313.775 182.624 312.516 184.123 311.857 184.842C311.197 185.562 310.238 187.899 310.238 189.158C310.238 190.417 310.538 192.215 311 193.5C311.462 194.785 312.601 196.481 314.314 197.61C316.027 198.738 317.752 198.993 319 199.5C320.248 200.007 324.338 200.895 325.5 201.5C326.662 202.105 327.981 202.405 328.58 203.724C329.179 205.042 329 206.721 328.4 208.159C327.801 209.598 325.943 209.837 324.025 210.137C322.106 210.437 320.428 210.197 318.5 209.5C316.572 208.803 312.5 206.5 312.5 206.5L309 211C309 211 311.857 212.475 312.995 213.074C314.134 213.674 315.282 214.401 318.09 214.992C320.899 215.584 322.766 215.292 324.025 215.172C325.283 215.052 327.741 214.932 329.359 214.213C330.978 213.494 332.781 211.839 333.375 210.737C333.97 209.634 334.814 206.9 334.694 204.862C334.574 202.824 333.915 200.367 332.476 199.228C331.038 198.089 328.76 196.89 326.602 196.291C324.444 195.691 322.586 195.751 320.5 195C318.414 194.249 316.427 193.284 316 192C315.573 190.716 315.453 188.918 316.352 187.6C317.251 186.281 318.654 185.499 320.5 185.5C322.346 185.502 324.799 186 326 186.5C327.201 187 330.5 188.5 330.5 188.5Z" fill="#01437F"/>
<path d="M336.5 186.5V181.5H364V186.5H353V214.5H347.5V186.5H336.5Z" fill="#01437F"/>
<path d="M406.5 181.5H401V214.5H406.5V181.5Z" fill="#01437F"/>
<path d="M451 181.5H445V205C445.464 206.78 445.944 207.56 446.843 208.938C447.742 210.317 448.641 210.976 449.6 211.995C450.559 213.014 452.657 213.794 453.556 214.153C454.455 214.513 456.15 214.768 458 215C459.85 215.232 462.487 214.872 463.986 214.633C465.484 214.393 468.161 213.139 469.261 212.175C470.36 211.211 471.538 209.718 472.198 208.878C472.857 208.039 473.636 206.541 474 205V181.5H468V202.5C468 202.5 468.002 204.623 467.522 205.642C467.043 206.661 465.784 208.039 465.784 208.039C465.185 208.579 464.405 209.118 463.147 209.418C461.888 209.718 460.689 209.718 459.31 209.658L459.244 209.655C457.878 209.596 456.233 209.524 454.995 208.699C453.736 207.859 453.017 207.32 452.357 206.541C451.698 205.761 451.458 205.342 451 204V181.5Z" fill="#01437F"/>
<path d="M508 186.5L504.5 189.5C504.5 189.5 501.688 187.3 500.49 186.64C499.291 185.981 497.133 185.322 494.5 185.5C491.867 185.678 490.322 186.26 488.442 187.48C486.561 188.699 485.325 190.417 484.545 191.795C483.766 193.174 483.466 195.691 483.5 197.5C483.534 199.309 484.066 201.206 484.5 202.5C484.934 203.794 486.703 206.181 488.5 207.5C490.297 208.819 491.558 209.298 493.417 209.658C495.275 210.017 498.152 209.897 499.77 209.358C501.389 208.818 505.5 206 505.5 206L508.5 210C508.5 210 505.764 212.355 504.685 213.074C503.606 213.794 501.149 214.693 499.351 214.992C497.553 215.292 494.675 215.172 493.5 215C492.325 214.828 489.401 214.753 487.183 213.614C484.965 212.475 482.148 210.437 481.249 209.178C480.35 207.919 478.743 205.086 478.431 203.604C478.12 202.121 477.56 198.118 477.652 197.01C477.745 195.902 478.43 191.602 479 190.5C479.57 189.398 481.309 187 482.927 185.502C484.545 184.003 486.442 183.04 487.782 182.385C489.123 181.73 491.561 180.92 493.177 180.646C494.792 180.373 496.842 180.44 498.691 180.706C500.541 180.973 502.288 181.665 503.906 182.744C505.525 183.823 508 186.5 508 186.5Z" fill="#01437F"/>
<path d="M518.5 181.5H513V214.5H519L518.5 181.5Z" fill="#01437F"/>
<path d="M544 177H540L544.5 171L549.5 173L544 177Z" fill="#01437F"/>
<path d="M646.5 214.5V181.5H671V186H652V196H669V200.5H652V209.5H671.5V214.5H646.5Z" fill="#01437F"/>
<path d="M717.5 186L713.673 189.948C713.673 189.948 710.721 186.895 708.45 185.9C706.18 184.905 704.815 185.194 703.614 185.344C702.413 185.494 699.961 185.945 698.56 186.695C697.159 187.446 695.607 189.348 694.957 190.298C694.306 191.249 692.705 194.302 692.555 195.503C692.404 196.704 692.145 199.291 692.5 201C692.855 202.709 694.506 204.961 695.407 205.962C696.308 206.963 697.748 208.699 699.761 209.365C701.773 210.031 703.234 209.984 704.5 210C705.766 210.016 707.899 209.85 709.519 209.115C711.14 208.38 713.5 206 713.5 206L717.5 209.5C717.5 209.5 714.674 212.018 713 213C711.326 213.983 709.82 214.72 707.768 215.12C705.716 215.521 703.064 215.371 701.462 215.17C699.861 214.97 698.21 214.47 696.508 213.669C694.807 212.868 692.555 211.217 691.754 210.366C690.953 209.515 689.102 207.313 688.351 205.912C687.6 204.511 686.599 202.059 686.349 200.207C686.099 198.356 686.299 195.551 686.749 194.052C687.2 192.553 688.101 190.048 688.901 188.847C689.702 187.646 691.003 185.044 693.605 183.342C696.208 181.641 698.31 180.84 700.311 180.59C702.313 180.34 703.814 180.19 706.016 180.39C708.218 180.59 710.22 181.14 712.022 182.041C713.823 182.942 716.225 184.343 717.5 186Z" fill="#01437F"/>
<path d="M766 181H760V214.5H766V191L776 206.5L787 191V214.5H793V181H787L776 196.5L766 181Z" fill="#01437F"/>
<path d="M836.5 181H831L831.124 203.985C831.524 205.551 831.537 206.541 832.359 207.877C833.182 209.214 834.044 210.012 834.5 210.5C834.956 210.988 836.571 212.619 838 213.5C839.429 214.381 841.848 214.96 843.357 215.23C844.866 215.499 848.776 215.012 850.215 214.735C851.653 214.458 854.776 212.646 855.702 211.72C856.627 210.795 857.828 209.254 858.5 208C859.172 206.746 859.751 204.317 859.853 203.244L859.791 181.064L854 181V203C853.889 204.162 853.041 206.206 852.5 207C851.959 207.794 851.499 208.288 850.647 208.804C849.796 209.32 848.182 209.677 847.373 209.855C846.563 210.032 844.905 210.139 843.88 209.978C842.856 209.817 841.21 209.62 840.162 208.828C839.113 208.036 838.696 207.633 838.105 206.827C837.514 206.021 836.691 204.664 836.5 203.5V181Z" fill="#01437F"/>
<path d="M888.5 185.5L885.5 188.5C885.5 188.5 883.929 187.427 882.926 186.848C881.924 186.27 880.844 186.038 879.995 185.73C879.147 185.422 877.72 185.074 876.178 185.19C874.635 185.306 873.633 185.73 872.283 186.424C870.933 187.118 870.586 188.044 870.317 189.509C870.047 190.974 870.833 191.442 871.5 192.5C872.167 193.558 873.933 194.36 876 195C878.067 195.64 879.88 195.679 881.384 196.18C882.888 196.681 884.97 197.838 885.741 198.417C886.512 198.995 887.711 199.959 888.5 201C889.289 202.041 889.597 203.622 889.636 204.702C889.674 205.782 889.481 207.363 889.019 208.52C888.556 209.677 887.592 211.18 886.821 212.029C886.049 212.877 884.546 213.995 883.427 214.458C882.309 214.921 880.767 215.345 879.5 215.5C878.233 215.655 876.371 215.461 874.79 215.229C874.23 215.148 872.322 215.075 870.548 214.497C870.548 214.497 867.964 213.571 866.422 212.607C864.879 211.643 863 210.5 863 210.5L867 206C867 206 868.637 207.938 871 209C873.363 210.062 875.342 210.153 877.258 210.409C879.173 210.666 880.073 210.409 881.307 209.884C882.542 209.359 883.582 208.057 883.89 206.9C884.199 205.743 884.16 204.972 883.697 203.931C883.235 202.89 881.692 202.119 880.304 201.656C878.916 201.193 877.296 200.692 875.638 200.229C873.98 199.766 872.245 199.226 870.586 198.609C869.837 198.33 868.311 197.684 867.232 196.681C867.232 196.681 865.381 194.753 864.995 193.597C864.609 192.44 864.301 191.283 864.417 190.049C864.532 188.815 864.846 187.005 866 185.5C867.154 183.995 868.041 183.262 869.545 182.491C871.049 181.72 871.863 181.36 873.5 181C875.137 180.64 877.219 180.678 878.8 180.871C880.381 181.064 882.772 181.874 884.237 182.529C885.702 183.185 888.5 185.5 888.5 185.5Z" fill="#01437F"/>
<path d="M891.5 185.5V181H919V185.5H908V214.5H902V185.5H891.5Z" fill="#01437F"/>
<path d="M928.5 181H923V214.5H928.5V181Z" fill="#01437F"/>
<path d="M973.5 181H967.5V214.5H991V210.5H973.5V181Z" fill="#01437F"/>
<path d="M995.5 214.5V181H1020V185.5H1000.5V196H1017.5V200H1000.5V210.5H1020V214.5H995.5Z" fill="#01437F"/>
<path d="M1047 185.5L1044.5 189L1042.4 187.428C1042.4 187.428 1040.94 186.518 1039.5 186C1038.06 185.482 1036.44 185.199 1034.85 185.244C1033.25 185.29 1032.25 185.381 1031 186C1029.75 186.62 1029.34 187.201 1029 188.5C1028.66 189.799 1028.7 190.975 1029.5 192C1030.3 193.025 1031.52 193.707 1033.12 194.253C1034.71 194.8 1037.3 195.209 1038.67 195.619C1040.03 196.028 1042.31 196.483 1043.81 197.393C1045.28 198.283 1046.09 199.303 1046.98 200.411L1047.04 200.487C1047.95 201.625 1048.54 203.263 1048.68 204.901C1048.81 206.539 1048.04 208.541 1047.45 209.679C1046.86 210.816 1045.86 212.181 1044.86 213C1043.85 213.819 1041.85 214.729 1040.5 215C1039.15 215.271 1037.17 215.503 1034.98 215.412C1032.8 215.321 1031.25 214.957 1030 214.5C1028.75 214.043 1026.84 213.501 1025.5 212.5C1024.16 211.499 1022.5 210 1022.5 210L1025.5 206C1025.5 206 1028.48 208.496 1029.66 209.269C1030.84 210.043 1032.62 210.498 1034.57 210.589C1036.53 210.68 1037.76 210.316 1038.9 210.088C1040.03 209.861 1041.58 208.951 1041.85 208.496C1042.13 208.041 1043.22 206.858 1042.54 205.083C1041.85 203.308 1041.63 203.035 1040.62 202.034C1039.62 201.033 1038.76 200.533 1037.23 199.955C1035.7 199.376 1034.1 199.381 1032.02 198.986C1031.47 198.88 1029.5 198.06 1028.07 197.621C1028.07 197.621 1025.97 196.665 1025.06 195.664C1024.15 194.663 1023.52 192.251 1023.47 190.977C1023.42 189.703 1023.65 187.701 1024.5 186C1025.35 184.299 1026.48 183.396 1028 182.5C1029.52 181.604 1031.52 181.24 1032.98 180.921C1034.44 180.603 1037.39 180.694 1038.94 180.921C1040.49 181.149 1042.4 182.286 1043.4 182.787C1044.4 183.287 1047 185.5 1047 185.5Z" fill="#01437F"/>
<path fill-rule="evenodd" clip-rule="evenodd" d="M263.048 10.3673H329.886C337.5 11.5 340.54 12.8229 347.27 16.6615C352.852 19.8454 356.185 24.3775 358.87 28.0283C359.422 28.779 359.947 29.4923 360.458 30.1491C363.455 34 367.052 44.1628 367.951 49.3314C368.85 54.5 368.858 66.4763 367.951 70C367.782 70.6569 367.581 71.5108 367.351 72.4916C366.346 76.7716 364.773 83.4673 362.776 86.749C360.322 90.7826 355.562 96.1216 351.563 99.1206C347.564 102.12 340.467 104.619 337.368 105.618C334.269 106.618 326.871 107.718 322.773 108.317L297.516 108.677L297.216 140.747L263.048 141.347L263.048 10.3673ZM297.216 80L297.516 39.5H317.5C321.373 40.1409 323.573 41.2405 326.272 42.9399C328.971 44.6394 331.07 47.9382 332.07 50.8372C333.069 53.7362 333.469 59.7342 333.369 62.4332C333.269 65.1323 330.854 71.5595 328.971 73.7294C327.087 75.8992 324.572 78.6277 319 80H297.216Z" fill="#01437F"/>
<path fill-rule="evenodd" clip-rule="evenodd" d="M613.5 10.3673V141.347H647V103.5H670L693.5 141.347H731L702.5 90.5C702.5 90.5 711.289 84.0228 714.189 79.8802C717.089 75.7375 718.332 69.9379 719.367 64.7596C720.403 59.5813 719.885 51.6068 719.16 46.0143C718.435 40.4217 715.432 33.5864 712.843 29.9616C710.254 26.3368 704.539 20.382 701.036 17.8445C697.534 15.3069 688.091 11.3198 682.5 10.3673H613.5ZM647 77V38.5H670C672.452 39.4896 675.87 41.0431 677.734 42.5444C679.599 44.0456 682.602 47.8784 683.119 50.8818C683.637 53.8852 683.844 59.2706 683.223 62.7919C682.602 66.3131 681.255 68.4879 678.459 71.802C675.663 75.1161 673.591 76.0482 670 77H647Z" fill="#01437F"/>
<path fill-rule="evenodd" clip-rule="evenodd" d="M822.932 9.49062C823.714 9.70518 824.503 9.92193 825.358 10.1285C830.293 11.3196 837.074 14.683 841 17C844.926 19.317 852.1 25.9001 856 29.5C859.159 32.4157 862.215 37.2116 864.981 41.5511C865.63 42.5695 866.263 43.5627 866.877 44.5006C870.11 49.4352 871.955 53.6562 873.5 61.5C875.045 69.3439 875.555 76.4906 874.704 82.1058C873.854 87.7211 872.152 95.8887 870.28 99.9725L870.232 100.077L870.232 100.079C868.33 104.228 863.794 114.125 861.432 117.499C859.05 120.902 852.413 127.538 847.479 131.452C842.544 135.366 833.696 139.109 829.272 140.981C824.848 142.853 817.191 144.724 812.766 145.065C812.119 145.115 811.468 145.175 810.803 145.237C806.921 145.599 802.553 146.007 795.58 144.554C787.413 142.853 782.648 141.491 778.054 139.45C773.46 137.408 766.483 133.664 762.229 129.58C761.67 129.044 761.067 128.472 760.436 127.873C756.26 123.913 750.833 118.767 748.616 114.776C746.064 110.182 741.64 102.185 739.938 96.229C738.237 90.2735 737.045 80.9147 737.556 72.4067C738.047 64.2202 739.799 59.027 741.767 53.1906C741.845 52.9615 741.922 52.7313 742 52.5L742.002 52.4932C744.063 46.3725 745.725 41.436 749.637 36.6733C750.037 36.1871 750.425 35.7115 750.806 35.2458C754.155 31.1483 756.878 27.818 760.698 24.7621C764.952 21.359 769.886 17.9558 773.63 16.084C777.373 14.2123 784.69 10.9792 789.625 9.78812C790.099 9.67355 790.525 9.56843 790.918 9.47153C794.606 8.56113 795.348 8.37777 805.96 7.9164C815.665 7.49443 819.208 8.46766 822.932 9.49062ZM786.562 45.8619C790.816 43.1394 795.702 40.7534 805 40.5C814.298 40.2467 819.5 43 819.5 43C819.5 43 828.644 47.9705 831 51C833.356 54.0296 837.61 61.6867 838.12 66.1109C838.631 70.535 839.481 78.5325 838.801 81.9357C838.12 85.3389 835.738 94.8678 831.824 99.8024C828.361 104.169 823.7 107.203 820.903 109.022C820.539 109.259 820.207 109.476 819.913 109.672C817.361 111.373 807.491 113.755 800.5 112C800.016 111.878 799.543 111.761 799.082 111.646C792.877 110.103 788.638 109.048 784.52 105.248C780.096 101.164 777.033 96.9097 775.161 90.9541C773.289 84.9985 772.268 81.0849 772.779 76.4906C772.835 75.9826 772.892 75.4351 772.951 74.8563C773.431 70.2007 774.12 63.5233 776.693 59.1343C777.124 58.3977 777.552 57.646 777.982 56.891C780.432 52.5878 782.943 48.1781 786.562 45.8619Z" fill="#01437F"/>
<path fill-rule="evenodd" clip-rule="evenodd" d="M263.5 181.5V214.5H279.5C281.913 213.964 285.519 212.697 287.567 211.137C289.14 209.938 290.023 208.624 290.834 207.416C291.078 207.052 291.315 206.699 291.563 206.36C292.636 204.898 293.61 201.389 293.708 198.562C293.805 195.735 293.025 193.395 292 191C290.975 188.605 290.004 186.767 287.469 184.914C284.934 183.062 284.057 182.575 280.5 181.5H263.5ZM269 209.5V186.5H280.5C282.01 187.157 282.896 187.847 284.5 189.5C286.104 191.153 287.372 193.493 287.5 195C287.628 196.507 287.761 200.122 287.372 201.584C286.982 203.046 285.909 205.678 284.252 206.945C282.595 208.213 280.938 208.992 278 209.5H269Z" fill="#01437F"/>
<path fill-rule="evenodd" clip-rule="evenodd" d="M368.5 181.5V215H374V203H382L390 215H396L387.5 202C387.5 202 390.079 200.966 391.038 200.487C391.997 200.007 393.016 199.108 393.795 198.209C394.575 197.31 395.713 195.632 396.013 194.253C396.313 192.874 396.313 190.896 396 189.5C395.687 188.104 394.994 186.461 394.035 185.502C393.89 185.356 393.754 185.215 393.622 185.077C392.878 184.304 392.228 183.627 390.499 182.864C390.307 182.78 390.131 182.701 389.967 182.629C388.392 181.93 388.005 181.758 386.5 181.5H368.5ZM374 197.5V186.5H385C386.782 186.82 387.442 187.06 388.7 188.379C389.67 189.395 389.857 190.233 390.029 191.003C390.08 191.232 390.13 191.455 390.199 191.675C390.499 192.635 390.439 194.073 389.48 195.272C388.521 196.471 387.442 197.25 386.5 197.5H382H374Z" fill="#01437F"/>
<path fill-rule="evenodd" clip-rule="evenodd" d="M413.5 214.5V181.5H431.5C433.83 182.083 434.886 182.875 435.909 183.642C436.017 183.723 436.125 183.803 436.233 183.883C437.372 184.722 438.271 186.521 438.631 187.6C438.66 187.686 438.688 187.77 438.716 187.852C439.038 188.795 439.284 189.519 439 191.5C438.715 193.489 438.348 193.944 437.674 194.782C437.647 194.816 437.62 194.85 437.591 194.885C437.562 194.923 437.531 194.961 437.5 195C436.713 195.991 434.5 197.5 434.5 197.5C434.5 197.5 436.293 198.089 437.732 199.168C439.17 200.247 439.41 200.427 440.309 201.686C441.208 202.944 441.328 204.623 441.388 205.582C441.448 206.541 441.328 208.039 440.789 209.238C440.249 210.437 439.23 211.516 438.211 212.415C437.192 213.314 435.514 214.273 434 214.5H429.5H413.5ZM418.5 185.5V195L429.7 195.032C431.618 194.792 432.277 194.493 433.356 192.994C434.016 191.616 434.015 190.776 433.896 189.697C433.776 188.619 433.176 187.659 432.697 187C432.217 186.341 431.318 185.921 430 185.5H418.5ZM418.5 209.5V200H431C432.577 200.367 433.836 201.326 434.315 201.865C434.795 202.405 435.334 203.124 435.394 204.743C435.454 206.361 435.214 207.2 434.255 208.099C433.296 208.998 432.637 209.418 431.5 209.5H418.5Z" fill="#01437F"/>
<path fill-rule="evenodd" clip-rule="evenodd" d="M534.5 182C532.933 182.659 530.762 183.843 529.411 185.094C528.326 186.098 526.951 188.103 526.062 189.398C525.844 189.716 525.656 189.991 525.508 190.198C524.757 191.249 523.862 194.656 523.706 196.304C523.55 197.951 523.806 200.007 524.557 202.509C525.308 205.011 526.659 207.263 527.76 208.865C528.63 210.131 530.127 211.366 531.136 212.199C531.402 212.419 531.635 212.611 531.813 212.768C532.664 213.519 535.231 214.28 536 214.5C537.468 214.92 539.82 215.07 541.522 215.12C543.223 215.17 546.649 214.85 548.228 214.169C549.807 213.489 551.248 212.801 552.782 211.567C554.315 210.334 555.764 208.188 556.5 207C557.236 205.812 558.287 203.01 558.5 201.5C558.713 199.99 558.837 197.555 558.787 196.254C558.737 194.953 558.136 192.1 557.636 190.949C557.136 189.798 555.434 187.346 554.5 186.5C554.377 186.388 554.234 186.258 554.077 186.114C553.041 185.168 551.359 183.63 550.23 182.892C548.928 182.041 547.227 181.391 545.575 180.99C543.924 180.59 541.522 180.29 539.42 180.69C537.318 181.09 536.067 181.341 534.5 182ZM547 187C547 187 543.874 185.344 540.958 185.5C538.041 185.656 537.635 185.853 535.5 187C533.365 188.147 531.913 190.098 531 191.5C530.087 192.902 529.639 194.844 529.5 197C529.361 199.156 529.711 201.158 530.362 202.709C531.013 204.261 531.599 205.499 532.714 206.763C533.83 208.027 535.248 209.199 537.468 209.966C539.688 210.732 541.849 210.4 544.224 209.866C546.6 209.331 547.877 208.264 549.229 206.813C550.58 205.362 551.981 203.26 552.532 201.658C553.013 200.257 552.882 197.743 552.808 196.332C552.797 196.132 552.788 195.953 552.782 195.803C552.732 194.602 551.631 192.15 550.73 190.649C549.829 189.147 547 187 547 187Z" fill="#01437F"/>
<path fill-rule="evenodd" clip-rule="evenodd" d="M611 181.5H628.5C630.45 181.841 633.748 183.149 635.504 184.443C637.26 185.737 638.607 187.296 639.808 189.298C640.894 191.107 641.268 194.136 641.448 195.591C641.468 195.747 641.485 195.884 641.5 196C641.66 197.205 641.67 200.617 641.26 202.509C640.849 204.402 639.708 206.813 638.5 208.5C637.292 210.187 635.805 211.317 634.704 212.068C633.603 212.818 630.6 214.72 629 215L611 214.5V181.5ZM617 209.5V186H626.5C627.598 186.145 629.15 186.954 630 187.5C630.85 188.047 632.146 189.05 633.5 190.5C634.854 191.95 635.454 193.651 635.905 195.303C636.355 196.954 636.255 199.607 635.805 201.358C635.354 203.11 634.405 204.874 633.202 206.162C632 207.451 630 209.115 628.5 209.5H624H617Z" fill="#01437F"/>
<path fill-rule="evenodd" clip-rule="evenodd" d="M737.058 180.387C738.521 180.387 741.099 180.735 742.005 180.944C742.911 181.153 745.489 182.199 746.186 182.756C746.4 182.928 746.674 183.119 746.985 183.336C747.685 183.825 748.571 184.445 749.391 185.265C750.576 186.449 751.76 188.121 752.388 189.097C753.015 190.073 753.801 192.12 754 193.5C754.199 194.88 754.408 197.737 754.339 198.852C754.326 199.052 754.318 199.302 754.309 199.586C754.267 200.89 754.201 202.94 753.572 204.427C752.806 206.238 751.76 207.98 750.924 209.026C750.088 210.071 747.998 211.952 747.022 212.649C746.047 213.346 744.019 214.212 743.12 214.53C742.221 214.848 739.764 215.163 737.197 215.227C734.631 215.291 732.32 214.949 730.508 213.973L730.361 213.894C728.624 212.959 727.335 212.265 726 211C724.628 209.699 723.122 207.702 722 206C720.878 204.298 720.195 201.43 719.986 199.897C719.777 198.364 719.596 196.653 720 195C720.115 194.529 720.181 194.09 720.246 193.651C720.41 192.552 720.573 191.457 721.519 189.863C722.843 187.634 724.237 186.24 725.003 185.474C725.77 184.707 726.607 184.011 728 183C729.393 181.99 732.5 181 732.5 181C732.5 181 735.595 180.387 737.058 180.387ZM742.284 186.798C740.681 185.961 739.079 185.752 737.267 185.822C735.455 185.892 733.881 186.247 732.389 186.937C730.897 187.627 729.254 188.749 728.487 189.585C727.721 190.421 726.466 192.233 725.909 193.696C725.352 195.159 725.003 196.413 725 198.5C724.997 200.199 725.371 201.028 725.923 202.255C726.049 202.535 726.185 202.836 726.327 203.172C727.094 204.984 728.696 206.935 729.95 207.841C731.205 208.747 731.902 209.095 733.853 209.653C735.212 210.041 735.896 210.023 736.74 209.999C737.107 209.989 737.504 209.979 738 210C739.636 210.071 741.314 209.785 743.195 208.902C744.513 208.284 745.1 207.572 745.716 206.826C745.879 206.628 746.044 206.428 746.226 206.226C746.913 205.462 747.318 204.471 747.7 203.537C747.799 203.294 747.897 203.054 747.998 202.824C748.434 201.827 748.536 200.662 748.652 199.33C748.666 199.173 748.68 199.014 748.695 198.852L748.708 198.704C748.842 197.237 748.955 196.002 748.416 194.114C747.858 192.163 747.092 190.491 745.838 189.376L745.789 189.333C744.565 188.245 743.866 187.623 742.284 186.798Z" fill="#01437F"/>
<path fill-rule="evenodd" clip-rule="evenodd" d="M799.5 214.5V181L818.604 181.062C820.29 181.665 821.213 182.146 822.256 183.11C823.3 184.073 824.094 185.315 824.5 186.5C824.906 187.685 825.255 189.02 825 190.5C824.745 191.98 824.262 192.769 823.5 194C822.738 195.232 821 197 821 197C821 197 823.621 198.684 824.5 199.5C825.379 200.317 825.989 201.052 826.632 202.256C827.274 203.46 827.354 204.504 827.153 206.069C826.953 207.635 826.832 208.558 826 210C825.168 211.442 824.906 211.689 823.742 212.612C822.578 213.535 821.895 213.936 820 214.5H799.5ZM805 185.5V195.5H816.5C817.44 195.071 818.524 194.268 819.045 193.465L819.1 193.381C819.593 192.625 819.933 192.102 820.049 191.057C820.169 189.973 819.928 188.93 819.407 188.047C818.885 187.164 818.283 186.441 816.5 185.5H805ZM805 210V200H817.5C818.604 200.45 819.567 200.931 820.53 201.975C821.494 203.019 821.855 204.183 821.895 205.347C821.928 206.288 821.514 207.045 821.2 207.621C821.125 207.758 821.056 207.884 821 208C820.707 208.606 819.527 209.601 817.801 209.963L805 210Z" fill="#01437F"/>
<path fill-rule="evenodd" clip-rule="evenodd" d="M935.5 214.5L935 181L955.034 181.012C957.11 181.582 957.802 182.152 958.772 182.949C958.886 183.044 959.005 183.141 959.13 183.242C960.313 184.198 961.223 186.109 961.359 186.791C961.391 186.948 961.432 187.102 961.475 187.266C961.621 187.814 961.793 188.466 961.723 189.658L961.706 189.96C961.63 191.269 961.604 191.722 961.223 192.57C960.813 193.48 960.222 194.253 959.5 195C958.778 195.747 957 197 957 197C957 197 959.863 198.636 960.813 199.577C961.764 200.518 963.27 202.262 963.5 203.5C963.73 204.738 963.771 206.266 963.5 207.5C963.473 207.621 963.45 207.732 963.429 207.835C963.412 207.921 963.396 208 963.381 208.076C963.23 208.835 963.166 209.157 962.497 210.316C961.734 211.637 960.488 212.397 959.665 212.899C959.608 212.934 959.553 212.968 959.5 213C958.687 213.5 956.991 214.456 955.5 214.5H935.5ZM940.5 185.5V195H951C952.395 195.027 952.987 194.982 953.942 194.436C954.898 193.889 955.444 193.252 955.808 192.57C956.172 191.887 956.218 190.522 955.99 189.476C955.763 188.429 954.761 187.201 954.17 186.791C953.578 186.382 952.577 185.745 951 185.5H940.5ZM940.5 209.5V200.5L953.578 200.487C955.034 200.76 956.4 201.579 957.037 202.262C957.674 202.944 958.311 204.127 958.402 205.447C958.493 206.767 957.492 207.904 956.582 208.45C955.671 208.996 954.579 209.588 953.5 209.5H940.5Z" fill="#01437F"/>
<path d="M563.5 181.5H569.5L587.5 204V181.5H593.5V214.5H588L569 191.5V214.5H563.5V181.5Z" fill="#01437F"/>
<path d="M870.28 99.9725C872.152 95.8887 873.854 87.7211 874.704 82.1058C875.555 76.4906 875.045 69.3439 873.5 61.5C871.955 53.6562 870.11 49.4352 866.877 44.5006C866.263 43.5627 865.63 42.5695 864.981 41.5511C862.215 37.2116 859.159 32.4157 856 29.5C852.1 25.9001 844.926 19.317 841 17C837.074 14.683 830.293 11.3196 825.358 10.1285C824.503 9.92193 823.714 9.70518 822.932 9.49062C819.208 8.46766 815.665 7.49443 805.96 7.9164C795.348 8.37777 794.606 8.56113 790.918 9.47153C790.525 9.56843 790.099 9.67355 789.625 9.78812C784.69 10.9792 777.373 14.2123 773.63 16.084C769.886 17.9558 764.952 21.359 760.698 24.7621C756.878 27.818 754.155 31.1483 750.806 35.2458C750.425 35.7115 750.037 36.1871 749.637 36.6733C745.725 41.436 744.063 46.3725 742.002 52.4932M870.28 99.9725L870.232 100.077M870.28 99.9725C870.264 100.007 870.249 100.042 870.232 100.077M742 52.5L742.002 52.4932M742 52.5C742.001 52.4977 742.002 52.4954 742.002 52.4932M742 52.5C741.922 52.7313 741.845 52.9615 741.767 53.1906C739.799 59.027 738.047 64.2202 737.556 72.4067C737.045 80.9147 738.237 90.2735 739.938 96.229C741.64 102.185 746.064 110.182 748.616 114.776C750.833 118.767 756.26 123.913 760.436 127.873C761.067 128.472 761.67 129.044 762.229 129.58C766.483 133.664 773.46 137.408 778.054 139.45C782.648 141.491 787.413 142.853 795.58 144.554C802.553 146.007 806.921 145.599 810.803 145.237C811.468 145.175 812.119 145.115 812.766 145.065C817.191 144.724 824.848 142.853 829.272 140.981C833.696 139.109 842.544 135.366 847.479 131.452C852.413 127.538 859.05 120.902 861.432 117.499C863.794 114.125 868.33 104.228 870.232 100.079L870.232 100.077M1078.88 125.831C1079.18 128.466 1078.29 130.851 1077.5 132.5C1076.71 134.149 1074.63 135.988 1073.09 136.815C1071.56 137.642 1068.55 138.232 1065.95 137.937C1063.35 137.642 1061.7 136.638 1060 135.5C1058.3 134.362 1056.91 130.496 1056.44 128.252C1055.97 126.009 1056.8 121.816 1057.74 120.162C1058.69 118.509 1060.34 116.796 1062.17 116.029C1064 115.261 1065.55 114.823 1068.25 114.907C1070.95 114.991 1072.2 115.469 1073.33 116.265C1074.46 117.061 1075.38 117.256 1076.93 119.572C1078.43 121.808 1078.58 123.105 1078.85 125.562M1078.88 125.831L1078.85 125.562M1078.88 125.831C1078.87 125.74 1078.86 125.651 1078.85 125.562M1064.5 133.5L1064.53 126.953M1070 127C1071.2 126.068 1071.85 125.359 1071.91 124.178C1071.97 122.997 1071.68 121.934 1070 121H1064.5L1064.53 126.953M1070 127C1070.97 128.075 1071.15 128.382 1071.5 130C1071.85 131.618 1071.8 133.095 1071.8 133.095M1070 127L1064.53 126.953M459.31 209.658C460.689 209.718 461.888 209.718 463.147 209.418C464.405 209.118 465.185 208.579 465.784 208.039C465.784 208.039 467.043 206.661 467.522 205.642C468.002 204.623 468 202.5 468 202.5V181.5H474V205C473.636 206.541 472.857 208.039 472.198 208.878C471.538 209.718 470.36 211.211 469.261 212.175C468.161 213.139 465.484 214.393 463.986 214.633C462.487 214.872 459.85 215.232 458 215C456.15 214.768 454.455 214.513 453.556 214.153C452.657 213.794 450.559 213.014 449.6 211.995C448.641 210.976 447.742 210.317 446.843 208.938C445.944 207.56 445.464 206.78 445 205V181.5H451V204C451.458 205.342 451.698 205.761 452.357 206.541C453.017 207.32 453.736 207.859 454.995 208.699C456.233 209.524 457.878 209.596 459.244 209.655M459.31 209.658L459.244 209.655M459.31 209.658C459.288 209.657 459.266 209.656 459.244 209.655M730.508 213.973C732.32 214.949 734.631 215.291 737.197 215.227C739.764 215.163 742.221 214.848 743.12 214.53C744.019 214.212 746.047 213.346 747.022 212.649C747.998 211.952 750.088 210.071 750.924 209.026C751.76 207.98 752.806 206.238 753.572 204.427C754.201 202.94 754.267 200.89 754.309 199.586C754.318 199.302 754.326 199.052 754.339 198.852C754.408 197.737 754.199 194.88 754 193.5C753.801 192.12 753.015 190.073 752.388 189.097C751.76 188.121 750.576 186.449 749.391 185.265C748.571 184.445 747.685 183.825 746.985 183.336C746.674 183.119 746.4 182.928 746.186 182.756C745.489 182.199 742.911 181.153 742.005 180.944C741.099 180.735 738.521 180.387 737.058 180.387C735.595 180.387 732.5 181 732.5 181C732.5 181 729.393 181.99 728 183C726.607 184.011 725.77 184.707 725.003 185.474C724.237 186.24 722.843 187.634 721.519 189.863C720.573 191.457 720.41 192.552 720.246 193.651C720.181 194.09 720.115 194.529 720 195C719.596 196.653 719.777 198.364 719.986 199.897C720.195 201.43 720.878 204.298 722 206C723.122 207.702 724.628 209.699 726 211C727.335 212.265 728.624 212.959 730.361 213.894M730.508 213.973L730.361 213.894M730.508 213.973C730.459 213.946 730.41 213.92 730.361 213.894M745.838 189.376C747.092 190.491 747.858 192.163 748.416 194.114C748.955 196.002 748.842 197.237 748.708 198.704M745.838 189.376L745.789 189.333M745.838 189.376C745.821 189.361 745.805 189.347 745.789 189.333M748.695 198.852C748.68 199.014 748.666 199.173 748.652 199.33C748.536 200.662 748.434 201.827 747.998 202.824C747.897 203.054 747.799 203.294 747.7 203.537C747.318 204.471 746.913 205.462 746.226 206.226C746.044 206.428 745.879 206.628 745.716 206.826C745.1 207.572 744.513 208.284 743.195 208.902C741.314 209.785 739.636 210.071 738 210C737.504 209.979 737.107 209.989 736.74 209.999C735.896 210.023 735.212 210.041 733.853 209.653C731.902 209.095 731.205 208.747 729.95 207.841C728.696 206.935 727.094 204.984 726.327 203.172C726.185 202.836 726.049 202.535 725.923 202.255C725.371 201.028 724.997 200.199 725 198.5C725.003 196.413 725.352 195.159 725.909 193.696C726.466 192.233 727.721 190.421 728.487 189.585C729.254 188.749 730.897 187.627 732.389 186.937C733.881 186.247 735.455 185.892 737.267 185.822C739.079 185.752 740.681 185.961 742.284 186.798C743.866 187.623 744.565 188.245 745.789 189.333M748.695 198.852L748.708 198.704M748.695 198.852C748.699 198.803 748.704 198.753 748.708 198.704M819.045 193.465C818.524 194.268 817.44 195.071 816.5 195.5H805V185.5H816.5C818.283 186.441 818.885 187.164 819.407 188.047C819.928 188.93 820.169 189.973 820.049 191.057C819.933 192.102 819.593 192.625 819.1 193.381M819.045 193.465L819.1 193.381M819.045 193.465C819.064 193.437 819.082 193.409 819.1 193.381M961.723 189.658L961.706 189.96M961.723 189.658C961.717 189.764 961.711 189.864 961.706 189.96M961.723 189.658C961.793 188.466 961.621 187.814 961.475 187.266C961.432 187.102 961.391 186.948 961.359 186.791C961.223 186.109 960.313 184.198 959.13 183.242C959.005 183.141 958.886 183.044 958.772 182.949C957.802 182.152 957.11 181.582 955.034 181.012L935 181L935.5 214.5H955.5C956.991 214.456 958.687 213.5 959.5 213C959.553 212.968 959.608 212.934 959.665 212.899C960.488 212.397 961.734 211.637 962.497 210.316C963.166 209.157 963.23 208.835 963.381 208.076C963.396 208 963.412 207.921 963.429 207.835C963.45 207.732 963.473 207.621 963.5 207.5C963.771 206.266 963.73 204.738 963.5 203.5C963.27 202.262 961.764 200.518 960.813 199.577C959.863 198.636 957 197 957 197C957 197 958.778 195.747 959.5 195C960.222 194.253 960.813 193.48 961.223 192.57C961.604 191.722 961.63 191.269 961.706 189.96M1047.04 200.487C1047.95 201.625 1048.54 203.263 1048.68 204.901C1048.81 206.539 1048.04 208.541 1047.45 209.679C1046.86 210.816 1045.86 212.181 1044.86 213C1043.85 213.819 1041.85 214.729 1040.5 215C1039.15 215.271 1037.17 215.503 1034.98 215.412C1032.8 215.321 1031.25 214.957 1030 214.5C1028.75 214.043 1026.84 213.501 1025.5 212.5C1024.16 211.499 1022.5 210 1022.5 210L1025.5 206C1025.5 206 1028.48 208.496 1029.66 209.269C1030.84 210.043 1032.62 210.498 1034.57 210.589C1036.53 210.68 1037.76 210.316 1038.9 210.088C1040.03 209.861 1041.58 208.951 1041.85 208.496C1042.13 208.041 1043.22 206.858 1042.54 205.083C1041.85 203.308 1041.63 203.035 1040.62 202.034C1039.62 201.033 1038.76 200.533 1037.23 199.955C1035.7 199.376 1034.1 199.381 1032.02 198.986C1031.47 198.88 1029.5 198.06 1028.07 197.621C1028.07 197.621 1025.97 196.665 1025.06 195.664C1024.15 194.663 1023.52 192.251 1023.47 190.977C1023.42 189.703 1023.65 187.701 1024.5 186C1025.35 184.299 1026.48 183.396 1028 182.5C1029.52 181.604 1031.52 181.24 1032.98 180.921C1034.44 180.603 1037.39 180.694 1038.94 180.921C1040.49 181.149 1042.4 182.286 1043.4 182.787C1044.4 183.287 1047 185.5 1047 185.5L1044.5 189L1042.4 187.428C1042.4 187.428 1040.94 186.518 1039.5 186C1038.06 185.482 1036.44 185.199 1034.85 185.244C1033.25 185.29 1032.25 185.381 1031 186C1029.75 186.62 1029.34 187.201 1029 188.5C1028.66 189.799 1028.7 190.975 1029.5 192C1030.3 193.025 1031.52 193.707 1033.12 194.253C1034.71 194.8 1037.3 195.209 1038.67 195.619C1040.03 196.028 1042.31 196.483 1043.81 197.393C1045.28 198.283 1046.09 199.303 1046.98 200.411M1047.04 200.487L1046.98 200.411M1047.04 200.487C1047.02 200.462 1047 200.436 1046.98 200.411M263.048 10.3673H329.886C337.5 11.5 340.54 12.8229 347.27 16.6615C352.852 19.8454 356.185 24.3775 358.87 28.0283C359.422 28.779 359.947 29.4923 360.458 30.1491C363.455 34 367.052 44.1628 367.951 49.3314C368.85 54.5 368.858 66.4763 367.951 70C367.782 70.6569 367.581 71.5108 367.351 72.4916C366.346 76.7716 364.773 83.4673 362.776 86.749C360.322 90.7826 355.562 96.1216 351.563 99.1206C347.564 102.12 340.467 104.619 337.368 105.618C334.269 106.618 326.871 107.718 322.773 108.317L297.516 108.677L297.216 140.747L263.048 141.347L263.048 10.3673ZM297.516 39.5L297.216 80H319C324.572 78.6277 327.087 75.8992 328.971 73.7294C330.854 71.5595 333.269 65.1323 333.369 62.4332C333.469 59.7342 333.069 53.7362 332.07 50.8372C331.07 47.9382 328.971 44.6394 326.272 42.9399C323.573 41.2405 321.373 40.1409 317.5 39.5H297.516ZM388.5 10.3673V141.347H480.5V112H422V90H477V61H422V38.5H479V10.3673H388.5ZM490 10.3673V38.5H525V141.347H560V38.5H594.5V10.3673H490ZM613.5 10.3673V141.347H647V103.5H670L693.5 141.347H731L702.5 90.5C702.5 90.5 711.289 84.0228 714.189 79.8802C717.089 75.7375 718.332 69.9379 719.367 64.7596C720.403 59.5813 719.885 51.6068 719.16 46.0143C718.435 40.4217 715.432 33.5864 712.843 29.9616C710.254 26.3368 704.539 20.382 701.036 17.8445C697.534 15.3069 688.091 11.3198 682.5 10.3673H613.5ZM647 38.5V77H670C673.591 76.0482 675.663 75.1161 678.459 71.802C681.255 68.4879 682.602 66.3131 683.223 62.7919C683.844 59.2706 683.637 53.8852 683.119 50.8818C682.602 47.8784 679.599 44.0456 677.734 42.5444C675.87 41.0431 672.452 39.4896 670 38.5H647ZM805 40.5C795.702 40.7534 790.816 43.1394 786.562 45.8619C782.943 48.1781 780.432 52.5878 777.982 56.891C777.552 57.646 777.124 58.3977 776.693 59.1343C774.12 63.5233 773.431 70.2007 772.951 74.8563C772.892 75.4351 772.835 75.9826 772.779 76.4906C772.268 81.0849 773.289 84.9985 775.161 90.9541C777.033 96.9097 780.096 101.164 784.52 105.248C788.638 109.048 792.877 110.103 799.082 111.646C799.543 111.761 800.016 111.878 800.5 112C807.491 113.755 817.361 111.373 819.913 109.672C820.207 109.476 820.539 109.259 820.903 109.022C823.7 107.203 828.361 104.169 831.824 99.8024C835.738 94.8678 838.12 85.3389 838.801 81.9357C839.481 78.5325 838.631 70.535 838.12 66.1109C837.61 61.6867 833.356 54.0296 831 51C828.644 47.9705 819.5 43 819.5 43C819.5 43 814.298 40.2467 805 40.5ZM898 11H931.5V141.347H898V11ZM963 11H996V111.5H1045.5V141.347H963V11ZM263.5 181.5V214.5H279.5C281.913 213.964 285.519 212.697 287.567 211.137C289.14 209.938 290.023 208.624 290.834 207.416C291.078 207.052 291.315 206.699 291.563 206.36C292.636 204.898 293.61 201.389 293.708 198.562C293.805 195.735 293.025 193.395 292 191C290.975 188.605 290.004 186.767 287.469 184.914C284.934 183.062 284.057 182.575 280.5 181.5H263.5ZM269 186.5V209.5H278C280.938 208.992 282.595 208.213 284.252 206.945C285.909 205.678 286.982 203.046 287.372 201.584C287.761 200.122 287.628 196.507 287.5 195C287.372 193.493 286.104 191.153 284.5 189.5C282.896 187.847 282.01 187.157 280.5 186.5H269ZM299 181.5H304.5V215H299V181.5ZM333.5 184.5L330.5 188.5C330.5 188.5 327.201 187 326 186.5C324.799 186 322.346 185.502 320.5 185.5C318.654 185.499 317.251 186.281 316.352 187.6C315.453 188.918 315.573 190.716 316 192C316.427 193.284 318.414 194.249 320.5 195C322.586 195.751 324.444 195.691 326.602 196.291C328.76 196.89 331.038 198.089 332.476 199.228C333.915 200.367 334.574 202.824 334.694 204.862C334.814 206.9 333.97 209.634 333.375 210.737C332.781 211.839 330.978 213.494 329.359 214.213C327.741 214.932 325.283 215.052 324.025 215.172C322.766 215.292 320.899 215.584 318.09 214.992C315.282 214.401 314.134 213.674 312.995 213.074C311.857 212.475 309 211 309 211L312.5 206.5C312.5 206.5 316.572 208.803 318.5 209.5C320.428 210.197 322.106 210.437 324.025 210.137C325.943 209.837 327.801 209.598 328.4 208.159C329 206.721 329.179 205.042 328.58 203.724C327.981 202.405 326.662 202.105 325.5 201.5C324.338 200.895 320.248 200.007 319 199.5C317.752 198.993 316.027 198.738 314.314 197.61C312.601 196.481 311.462 194.785 311 193.5C310.538 192.215 310.238 190.417 310.238 189.158C310.238 187.899 311.197 185.562 311.857 184.842C312.516 184.123 313.775 182.624 315.153 181.845C316.532 181.066 317.611 180.706 318.87 180.467C320.128 180.227 322.346 180.467 323.485 180.467C324.624 180.467 326.003 180.766 326.962 181.066C327.921 181.366 329.243 181.896 330.5 182.5C331.757 183.104 333.5 184.5 333.5 184.5ZM336.5 181.5V186.5H347.5V214.5H353V186.5H364V181.5H336.5ZM368.5 181.5V215H374V203H382L390 215H396L387.5 202C387.5 202 390.079 200.966 391.038 200.487C391.997 200.007 393.016 199.108 393.795 198.209C394.575 197.31 395.713 195.632 396.013 194.253C396.313 192.874 396.313 190.896 396 189.5C395.687 188.104 394.994 186.461 394.035 185.502C393.89 185.356 393.754 185.215 393.622 185.077C392.878 184.304 392.228 183.627 390.499 182.864C390.307 182.78 390.131 182.701 389.967 182.629C388.392 181.93 388.005 181.758 386.5 181.5H368.5ZM374 186.5V197.5H382H386.5C387.442 197.25 388.521 196.471 389.48 195.272C390.439 194.073 390.499 192.635 390.199 191.675C390.13 191.455 390.08 191.232 390.029 191.003C389.857 190.233 389.67 189.395 388.7 188.379C387.442 187.06 386.782 186.82 385 186.5H374ZM401 181.5H406.5V214.5H401V181.5ZM413.5 181.5V214.5H429.5H434C435.514 214.273 437.192 213.314 438.211 212.415C439.23 211.516 440.249 210.437 440.789 209.238C441.328 208.039 441.448 206.541 441.388 205.582C441.328 204.623 441.208 202.944 440.309 201.686C439.41 200.427 439.17 200.247 437.732 199.168C436.293 198.089 434.5 197.5 434.5 197.5C434.5 197.5 436.713 195.991 437.5 195C437.531 194.961 437.562 194.923 437.591 194.885C437.62 194.85 437.647 194.816 437.674 194.782C438.348 193.944 438.715 193.489 439 191.5C439.284 189.519 439.038 188.795 438.716 187.852C438.688 187.77 438.66 187.686 438.631 187.6C438.271 186.521 437.372 184.722 436.233 183.883C436.125 183.803 436.017 183.723 435.909 183.642C434.886 182.875 433.83 182.083 431.5 181.5H413.5ZM418.5 185.5V195L429.7 195.032C431.618 194.792 432.277 194.493 433.356 192.994C434.016 191.616 434.015 190.776 433.896 189.697C433.776 188.619 433.176 187.659 432.697 187C432.217 186.341 431.318 185.921 430 185.5H418.5ZM418.5 200V209.5H431.5C432.637 209.418 433.296 208.998 434.255 208.099C435.214 207.2 435.454 206.361 435.394 204.743C435.334 203.124 434.795 202.405 434.315 201.865C433.836 201.326 432.577 200.367 431 200H418.5ZM504.5 189.5L508 186.5C508 186.5 505.525 183.823 503.906 182.744C502.288 181.665 500.541 180.973 498.691 180.706C496.842 180.44 494.792 180.373 493.177 180.646C491.561 180.92 489.123 181.73 487.782 182.385C486.442 183.04 484.545 184.003 482.927 185.502C481.309 187 479.57 189.398 479 190.5C478.43 191.602 477.745 195.902 477.652 197.01C477.56 198.118 478.12 202.121 478.431 203.604C478.743 205.086 480.35 207.919 481.249 209.178C482.148 210.437 484.965 212.475 487.183 213.614C489.401 214.753 492.325 214.828 493.5 215C494.675 215.172 497.553 215.292 499.351 214.992C501.149 214.693 503.606 213.794 504.685 213.074C505.764 212.355 508.5 210 508.5 210L505.5 206C505.5 206 501.389 208.818 499.77 209.358C498.152 209.897 495.275 210.017 493.417 209.658C491.558 209.298 490.297 208.819 488.5 207.5C486.703 206.181 484.934 203.794 484.5 202.5C484.066 201.206 483.534 199.309 483.5 197.5C483.466 195.691 483.766 193.174 484.545 191.795C485.325 190.417 486.561 188.699 488.442 187.48C490.322 186.26 491.867 185.678 494.5 185.5C497.133 185.322 499.291 185.981 500.49 186.64C501.688 187.3 504.5 189.5 504.5 189.5ZM513 181.5H518.5L519 214.5H513V181.5ZM534.5 182C532.933 182.659 530.762 183.843 529.411 185.094C528.326 186.098 526.951 188.103 526.062 189.398C525.844 189.716 525.656 189.991 525.508 190.198C524.757 191.249 523.862 194.656 523.706 196.304C523.55 197.951 523.806 200.007 524.557 202.509C525.308 205.011 526.659 207.263 527.76 208.865C528.63 210.131 530.127 211.366 531.136 212.199C531.402 212.419 531.635 212.611 531.813 212.768C532.664 213.519 535.231 214.28 536 214.5C537.468 214.92 539.82 215.07 541.522 215.12C543.223 215.17 546.649 214.85 548.228 214.169C549.807 213.489 551.248 212.801 552.782 211.567C554.315 210.334 555.764 208.188 556.5 207C557.236 205.812 558.287 203.01 558.5 201.5C558.713 199.99 558.837 197.555 558.787 196.254C558.737 194.953 558.136 192.1 557.636 190.949C557.136 189.798 555.434 187.346 554.5 186.5C554.377 186.388 554.234 186.258 554.077 186.114C553.041 185.168 551.359 183.63 550.23 182.892C548.928 182.041 547.227 181.391 545.575 180.99C543.924 180.59 541.522 180.29 539.42 180.69C537.318 181.09 536.067 181.341 534.5 182ZM540.958 185.5C543.874 185.344 547 187 547 187C547 187 549.829 189.147 550.73 190.649C551.631 192.15 552.732 194.602 552.782 195.803C552.788 195.953 552.797 196.132 552.808 196.332C552.882 197.743 553.013 200.257 552.532 201.658C551.981 203.26 550.58 205.362 549.229 206.813C547.877 208.264 546.6 209.331 544.224 209.866C541.849 210.4 539.688 210.732 537.468 209.966C535.248 209.199 533.83 208.027 532.714 206.763C531.599 205.499 531.013 204.261 530.362 202.709C529.711 201.158 529.361 199.156 529.5 197C529.639 194.844 530.087 192.902 531 191.5C531.913 190.098 533.365 188.147 535.5 187C537.635 185.853 538.041 185.656 540.958 185.5ZM540 177H544L549.5 173L544.5 171L540 177ZM563.5 181.5H569.5L587.5 204V181.5H593.5V214.5H588L569 191.5V214.5H563.5V181.5ZM611 181.5H628.5C630.45 181.841 633.748 183.149 635.504 184.443C637.26 185.737 638.607 187.296 639.808 189.298C640.894 191.107 641.268 194.136 641.448 195.591C641.468 195.747 641.485 195.884 641.5 196C641.66 197.205 641.67 200.617 641.26 202.509C640.849 204.402 639.708 206.813 638.5 208.5C637.292 210.187 635.805 211.317 634.704 212.068C633.603 212.818 630.6 214.72 629 215L611 214.5V181.5ZM617 186V209.5H624H628.5C630 209.115 632 207.451 633.202 206.162C634.405 204.874 635.354 203.11 635.805 201.358C636.255 199.607 636.355 196.954 635.905 195.303C635.454 193.651 634.854 191.95 633.5 190.5C632.146 189.05 630.85 188.047 630 187.5C629.15 186.954 627.598 186.145 626.5 186H617ZM646.5 181.5V214.5H671.5V209.5H652V200.5H669V196H652V186H671V181.5H646.5ZM713.673 189.948L717.5 186C716.225 184.343 713.823 182.942 712.022 182.041C710.22 181.14 708.218 180.59 706.016 180.39C703.814 180.19 702.313 180.34 700.311 180.59C698.31 180.84 696.208 181.641 693.605 183.342C691.003 185.044 689.702 187.646 688.901 188.847C688.101 190.048 687.2 192.553 686.749 194.052C686.299 195.551 686.099 198.356 686.349 200.207C686.599 202.059 687.6 204.511 688.351 205.912C689.102 207.313 690.953 209.515 691.754 210.366C692.555 211.217 694.807 212.868 696.508 213.669C698.21 214.47 699.861 214.97 701.462 215.17C703.064 215.371 705.716 215.521 707.768 215.12C709.82 214.72 711.326 213.983 713 213C714.674 212.018 717.5 209.5 717.5 209.5L713.5 206C713.5 206 711.14 208.38 709.519 209.115C707.899 209.85 705.766 210.016 704.5 210C703.234 209.984 701.773 210.031 699.761 209.365C697.748 208.699 696.308 206.963 695.407 205.962C694.506 204.961 692.855 202.709 692.5 201C692.145 199.291 692.404 196.704 692.555 195.503C692.705 194.302 694.306 191.249 694.957 190.298C695.607 189.348 697.159 187.446 698.56 186.695C699.961 185.945 702.413 185.494 703.614 185.344C704.815 185.194 706.18 184.905 708.45 185.9C710.721 186.895 713.673 189.948 713.673 189.948ZM760 181H766L776 196.5L787 181H793V214.5H787V191L776 206.5L766 191V214.5H760V181ZM799.5 181V214.5H820C821.895 213.936 822.578 213.535 823.742 212.612C824.906 211.689 825.168 211.442 826 210C826.832 208.558 826.953 207.635 827.153 206.069C827.354 204.504 827.274 203.46 826.632 202.256C825.989 201.052 825.379 200.317 824.5 199.5C823.621 198.684 821 197 821 197C821 197 822.738 195.232 823.5 194C824.262 192.769 824.745 191.98 825 190.5C825.255 189.02 824.906 187.685 824.5 186.5C824.094 185.315 823.3 184.073 822.256 183.11C821.213 182.146 820.29 181.665 818.604 181.062L799.5 181ZM805 200V210L817.801 209.963C819.527 209.601 820.707 208.606 821 208C821.056 207.884 821.125 207.758 821.2 207.621C821.514 207.045 821.928 206.288 821.895 205.347C821.855 204.183 821.494 203.019 820.53 201.975C819.567 200.931 818.604 200.45 817.5 200H805ZM831 181H836.5V203.5C836.691 204.664 837.514 206.021 838.105 206.827C838.696 207.633 839.113 208.036 840.162 208.828C841.21 209.62 842.856 209.817 843.88 209.978C844.905 210.139 846.563 210.032 847.373 209.855C848.182 209.677 849.796 209.32 850.647 208.804C851.499 208.288 851.959 207.794 852.5 207C853.041 206.206 853.889 204.162 854 203V181L859.791 181.064L859.853 203.244C859.751 204.317 859.172 206.746 858.5 208C857.828 209.254 856.627 210.795 855.702 211.72C854.776 212.646 851.653 214.458 850.215 214.735C848.776 215.012 844.866 215.499 843.357 215.23C841.848 214.96 839.429 214.381 838 213.5C836.571 212.619 834.956 210.988 834.5 210.5C834.044 210.012 833.182 209.214 832.359 207.877C831.537 206.541 831.524 205.551 831.124 203.985L831 181ZM885.5 188.5L888.5 185.5C888.5 185.5 885.702 183.185 884.237 182.529C882.772 181.874 880.381 181.064 878.8 180.871C877.219 180.678 875.137 180.64 873.5 181C871.863 181.36 871.049 181.72 869.545 182.491C868.041 183.262 867.154 183.995 866 185.5C864.846 187.005 864.532 188.815 864.417 190.049C864.301 191.283 864.609 192.44 864.995 193.597C865.381 194.753 867.232 196.681 867.232 196.681C868.311 197.684 869.837 198.33 870.586 198.609C872.245 199.226 873.98 199.766 875.638 200.229C877.296 200.692 878.916 201.193 880.304 201.656C881.692 202.119 883.235 202.89 883.697 203.931C884.16 204.972 884.199 205.743 883.89 206.9C883.582 208.057 882.542 209.359 881.307 209.884C880.073 210.409 879.173 210.666 877.258 210.409C875.342 210.153 873.363 210.062 871 209C868.637 207.938 867 206 867 206L863 210.5C863 210.5 864.879 211.643 866.422 212.607C867.964 213.571 870.548 214.497 870.548 214.497C872.322 215.075 874.23 215.148 874.79 215.229C876.371 215.461 878.233 215.655 879.5 215.5C880.767 215.345 882.309 214.921 883.427 214.458C884.546 213.995 886.049 212.877 886.821 212.029C887.592 211.18 888.556 209.677 889.019 208.52C889.481 207.363 889.674 205.782 889.636 204.702C889.597 203.622 889.289 202.041 888.5 201C887.711 199.959 886.512 198.995 885.741 198.417C884.97 197.838 882.888 196.681 881.384 196.18C879.88 195.679 878.067 195.64 876 195C873.933 194.36 872.167 193.558 871.5 192.5C870.833 191.442 870.047 190.974 870.317 189.509C870.586 188.044 870.933 187.118 872.283 186.424C873.633 185.73 874.635 185.306 876.178 185.19C877.72 185.074 879.147 185.422 879.995 185.73C880.844 186.038 881.924 186.27 882.926 186.848C883.929 187.427 885.5 188.5 885.5 188.5ZM891.5 181V185.5H902V214.5H908V185.5H919V181H891.5ZM923 181H928.5V214.5H923V181ZM940.5 185.5V195H951C952.395 195.027 952.987 194.982 953.942 194.436C954.898 193.889 955.444 193.252 955.808 192.57C956.172 191.887 956.218 190.522 955.99 189.476C955.763 188.429 954.761 187.201 954.17 186.791C953.578 186.382 952.577 185.745 951 185.5H940.5ZM940.5 200.5V209.5H953.5C954.579 209.588 955.671 208.996 956.582 208.45C957.492 207.904 958.493 206.767 958.402 205.447C958.311 204.127 957.674 202.944 957.037 202.262C956.4 201.579 955.034 200.76 953.578 200.487L940.5 200.5ZM967.5 181H973.5V210.5H991V214.5H967.5V181ZM995.5 181V214.5H1020V210.5H1000.5V200H1017.5V196H1000.5V185.5H1020V181H995.5Z" stroke="#01437F"/>
</svg>
