<?xml version="1.0" standalone="no"?>
<!DOCTYPE svg PUBLIC "-//W3C//DTD SVG 20010904//EN"
 "http://www.w3.org/TR/2001/REC-SVG-20010904/DTD/svg10.dtd">
<svg version="1.0" xmlns="http://www.w3.org/2000/svg"
 width="200.831122pt" height="124.855335pt" viewBox="0 0 200.831122 124.855335"
 preserveAspectRatio="xMidYMid meet">
<metadata>
Created by potrace 1.12, written by Peter Selinger 2001-2015
</metadata>
<g transform="translate(-47.000000,149.982076) scale(0.100000,-0.100000)"
fill="#000000" stroke="none">
<path d="M1415 1490 c3 -5 21 -17 40 -26 19 -8 41 -26 49 -39 15 -23 14 -25
-42 -67 -44 -33 -64 -58 -89 -108 -56 -112 -42 -113 65 -4 68 70 116 110 160
133 34 18 62 34 62 36 0 7 -90 53 -136 69 -53 18 -119 22 -109 6z"/>
<path d="M1795 1421 c-142 -35 -223 -86 -400 -251 -131 -122 -178 -155 -253
-182 -78 -27 -191 -23 -244 10 l-38 24 24 31 c32 42 88 176 84 201 -2 14 -17
1 -60 -55 -31 -41 -77 -89 -101 -106 -44 -32 -141 -63 -197 -63 -17 0 -29 -4
-25 -9 9 -15 125 -23 193 -13 l62 9 26 -34 c34 -45 82 -63 168 -63 150 0 235
43 444 223 129 111 183 150 265 187 104 47 198 57 158 17 -30 -30 3 -87 51
-87 44 0 76 58 47 87 -8 8 0 12 25 15 20 2 36 1 36 -2 0 -3 -16 -29 -35 -57
-34 -51 -43 -73 -28 -73 26 0 174 58 178 69 12 30 -13 32 -64 7 -28 -15 -51
-23 -51 -20 0 4 27 36 61 70 33 35 58 68 54 74 -11 18 -300 11 -380 -9z"/>
<path d="M1620 1121 c-65 -21 -110 -42 -110 -50 0 -3 58 -6 130 -6 139 0 148
3 130 50 -8 21 -16 25 -52 24 -24 0 -68 -8 -98 -18z"/>
<path d="M1725 797 c-76 -30 -115 -85 -115 -162 0 -44 5 -57 34 -91 18 -21 64
-55 101 -74 37 -19 76 -46 86 -59 18 -23 18 -25 1 -54 -37 -65 -106 -54 -141
23 l-17 38 -36 -19 c-20 -10 -40 -23 -43 -29 -11 -18 34 -68 87 -94 83 -42
170 -30 233 31 38 37 50 80 42 149 -6 57 -37 91 -127 138 -94 50 -112 78 -79
120 36 46 86 33 129 -32 15 -23 15 -23 57 -5 24 10 43 21 43 24 0 3 -16 22
-36 42 -58 58 -150 81 -219 54z"/>
<path d="M470 530 l0 -260 70 0 70 0 0 225 0 225 54 0 c44 0 58 -4 79 -26 30
-30 42 -77 34 -136 -7 -52 -30 -74 -87 -85 -36 -7 -46 -13 -48 -31 -3 -20 1
-22 50 -22 68 0 115 14 145 42 73 68 71 209 -4 280 -44 41 -74 48 -224 48
l-139 0 0 -260z"/>
<path d="M940 531 l0 -260 33 -3 c17 -2 49 -1 70 1 l37 3 0 259 0 259 -70 0
-70 0 0 -259z"/>
<path d="M1147 783 c-4 -3 -7 -121 -7 -260 l0 -254 36 3 36 3 1 130 c1 74 6
132 12 134 5 2 47 -54 92 -125 46 -71 91 -135 100 -142 11 -8 38 -12 68 -10
l50 3 3 263 2 262 -35 0 -35 0 0 -155 c0 -85 -4 -155 -8 -155 -5 0 -53 70
-106 155 l-98 155 -52 0 c-29 0 -56 -3 -59 -7z"/>
<path d="M2071 545 c-45 -136 -85 -253 -88 -261 -4 -11 4 -14 34 -14 l39 0 18
60 c65 216 103 320 113 308 18 -22 93 -252 85 -260 -4 -4 -41 -8 -82 -10 -61
-2 -75 -6 -78 -20 -3 -15 8 -18 90 -20 87 -3 93 -4 105 -28 15 -30 59 -42 126
-33 52 6 51 6 38 31 -5 9 -24 58 -41 107 -18 50 -50 140 -72 200 -21 61 -45
126 -52 145 l-12 35 -70 3 -71 3 -82 -246z"/>
</g>
</svg>
