<svg width="734" height="458" viewBox="0 0 734 458" fill="none" xmlns="http://www.w3.org/2000/svg">
<path d="M98.5 259.5H0.5V450.5H47.5V285H80.5C86.2906 285.092 95.1811 288.714 101.108 294.97C107.035 301.226 111.062 309.029 113 315.5C114.938 321.971 115.267 335.472 113.621 342.057C111.974 348.643 110.328 356.216 106 362C101.672 367.783 92.8762 373.997 86 375C79.1238 376.002 65 375 65 375L58 393.5H113C120.865 390.791 128.378 386.122 133.048 380.254C137.719 374.386 142.232 370.232 146.878 360.826C151.525 351.421 154.122 338.435 153.464 327.898C152.805 317.361 151.488 303.531 143.585 291.677C135.683 279.823 125.804 273.238 120.5 269.5C115.196 265.762 98.5 259.5 98.5 259.5Z" fill="#2D2E91"/>
<path d="M222.5 259.5H170.5V450.5H222.5V259.5Z" fill="#2D2E91"/>
<path d="M286.5 259.5H246.5V450.5H273V347.5L344 450.5H390V259.5H361.5V375L286.5 259.5Z" fill="#2D2E91"/>
<path d="M554 291L516.5 308.5C516.5 308.5 513.367 297.934 509.5 291C505.633 284.066 502.501 282.458 498 280.5C493.499 278.542 490.976 276.86 483.732 277.518C476.488 278.177 471.219 280.153 467.5 285.5C463.781 290.847 460.024 294.312 461 302.5C461.976 310.688 466.219 314.394 473 319.5C479.781 324.606 492.548 327.504 499.5 330.5C506.452 333.496 514.685 339.752 520.282 344.033L520.557 344.243C526.103 348.482 532.808 353.607 537.405 363.79C542.078 374.141 543.01 380.245 543.5 387L543.538 387.526C544.023 394.179 544.607 402.19 543.003 409.889C541.356 417.792 538.541 423.304 530.49 433.927C522.439 444.549 508.259 449.952 503.489 452.037C498.719 454.122 488.342 455.659 478 456.5C467.658 457.34 453.438 453.025 453.438 453.025C453.438 453.025 431.728 445.037 422.157 434.915C412.585 424.792 409 413.5 409 413.5L440 392.5C440 392.5 442.159 404.842 445 410C447.841 415.158 452.988 419.646 457 423C461.012 426.353 466.61 430.963 476.159 431.622C485.708 432.28 491.207 430.244 496.245 424.048C501.282 417.853 501.184 413.182 499.5 404.5C497.816 395.818 495.586 393.754 486 387C476.414 380.245 465.622 377.29 461 375C456.378 372.709 444.548 369.058 436.316 361.485C428.084 353.912 419.852 343.704 417 330.5C414.148 317.296 414.913 305.507 417 295.5C419.087 285.492 424.111 276.921 434 268C443.889 259.079 457.853 255.836 467.5 254C477.147 252.163 490.901 253.202 499.5 254C508.099 254.798 523.278 262.433 531 268C538.722 273.567 554 291 554 291Z" fill="#2D2E91"/>
<path d="M660.5 259.5H613.5L548.5 450.5H578L623.5 308.5L660.5 410H604.5L598 427H666L676 450.5H732.5L660.5 259.5Z" fill="#2D2E91"/>
<path d="M98.5 259.5H0.5V450.5H47.5V285H80.5C86.2906 285.092 95.1811 288.714 101.108 294.97C107.035 301.226 111.062 309.029 113 315.5C114.938 321.971 115.267 335.472 113.621 342.057C111.974 348.643 110.328 356.216 106 362C101.672 367.783 92.8762 373.997 86 375C79.1238 376.002 65 375 65 375L58 393.5H113C120.865 390.791 128.378 386.122 133.048 380.254C137.719 374.386 142.232 370.232 146.878 360.826C151.525 351.421 154.122 338.435 153.464 327.898C152.805 317.361 151.488 303.531 143.585 291.677C135.683 279.823 125.804 273.238 120.5 269.5C115.196 265.762 98.5 259.5 98.5 259.5Z" stroke="#2D2E91"/>
<path d="M222.5 259.5H170.5V450.5H222.5V259.5Z" stroke="#2D2E91"/>
<path d="M286.5 259.5H246.5V450.5H273V347.5L344 450.5H390V259.5H361.5V375L286.5 259.5Z" stroke="#2D2E91"/>
<path d="M554 291L516.5 308.5C516.5 308.5 513.367 297.934 509.5 291C505.633 284.066 502.501 282.458 498 280.5C493.499 278.542 490.976 276.86 483.732 277.518C476.488 278.177 471.219 280.153 467.5 285.5C463.781 290.847 460.024 294.312 461 302.5C461.976 310.688 466.219 314.394 473 319.5C479.781 324.606 492.548 327.504 499.5 330.5C506.452 333.496 514.685 339.752 520.282 344.033L520.557 344.243C526.103 348.482 532.808 353.607 537.405 363.79C542.078 374.141 543.01 380.245 543.5 387L543.538 387.526C544.023 394.179 544.607 402.19 543.003 409.889C541.356 417.792 538.541 423.304 530.49 433.927C522.439 444.549 508.259 449.952 503.489 452.037C498.719 454.122 488.342 455.659 478 456.5C467.658 457.34 453.438 453.025 453.438 453.025C453.438 453.025 431.728 445.037 422.157 434.915C412.585 424.792 409 413.5 409 413.5L440 392.5C440 392.5 442.159 404.842 445 410C447.841 415.158 452.988 419.646 457 423C461.012 426.353 466.61 430.963 476.159 431.622C485.708 432.28 491.207 430.244 496.245 424.048C501.282 417.853 501.184 413.182 499.5 404.5C497.816 395.818 495.586 393.754 486 387C476.414 380.245 465.622 377.29 461 375C456.378 372.709 444.548 369.058 436.316 361.485C428.084 353.912 419.852 343.704 417 330.5C414.148 317.296 414.913 305.507 417 295.5C419.087 285.492 424.111 276.921 434 268C443.889 259.079 457.853 255.836 467.5 254C477.147 252.163 490.901 253.202 499.5 254C508.099 254.798 523.278 262.433 531 268C538.722 273.567 554 291 554 291Z" stroke="#2D2E91"/>
<path d="M660.5 259.5H613.5L548.5 450.5H578L623.5 308.5L660.5 410H604.5L598 427H666L676 450.5H732.5L660.5 259.5Z" stroke="#2D2E91"/>
<path d="M69.5 170C56.5 172.5 32.5 175.5 32.5 175.5C32.5 175.5 61 180.5 73 180.5C85 180.5 106 178.5 110 178C114 177.5 136 175.5 136 175.5C136 175.5 140.685 181.769 143.685 185.769C146.685 189.769 153.675 196.54 158.349 200.279C163.022 204.017 170.941 208.238 180 210C189.059 211.762 201.498 211.906 210.5 211.5C219.502 211.094 236.922 207.116 243.5 205.5C250.078 203.884 277.851 193.069 283.726 189.33C289.601 185.591 316.621 168.372 319 166.5C321.379 164.628 353 137 353 137C353 137 392.017 102.888 405.5 92.5C418.983 82.1119 448.133 64.5954 463 59C477.867 53.4046 506.972 42.7487 526 41C545.028 39.2513 590.5 41 590.5 41C590.5 41 575.605 61.8165 571 68.5C566.395 75.1835 553.5 99.5 553.5 99.5C553.5 99.5 555.853 98.2149 569 92.5C582.147 86.7851 617 78.5 617 78.5L621 61.5L569 84L625.5 23.5L565.323 21.4929C565.323 21.4929 529.588 21.7556 512.849 23.8963C496.111 26.0369 466.614 32.7924 452.23 38.9843C437.847 45.1761 402.827 67.1574 392 75.5C381.173 83.8426 360.367 102.941 357.029 106.146C353.691 109.35 313.635 148.472 307.5 152.5C301.365 156.528 269.305 178.915 261.962 182.52C254.618 186.125 231.919 193.469 223.374 195.071C214.828 196.674 197.604 196.941 187.5 196.5C177.396 196.059 161.019 192 153.5 187C145.981 182 140.5 170 140.5 170C140.5 170 153.5 153.5 157.5 147C161.5 140.5 170.5 118.5 173 112C175.5 105.5 181.5 80 181.5 80L162.5 108.5C160.5 111.5 142.196 134.5 136 141C129.804 147.5 115 157 108 160.5C101 164 82.5 167.5 69.5 170Z" fill="#BDC1C3"/>
<path d="M402 12.5C406.079 14.3034 429 29.5 429 29.5L415.5 36.5L386.413 52.8673C386.413 52.8673 362.906 69.4605 353 78.5C343.094 87.5395 337.863 98.0376 335 102.5C332.137 106.962 314.5 130.5 314.5 130.5C314.5 130.5 324.195 102.377 327.415 96.5012C330.635 90.625 336.606 77.615 340 73C343.394 68.385 351.537 59.3202 362.292 51.1772C373.046 43.0342 386 34.5 386 34.5C386 34.5 380.882 25.5192 377.5 22C374.118 18.4808 363.828 10.616 359.5 8.5C355.172 6.38396 343 0.5 343 0.5C343 0.5 364.123 0.836871 374.5 2.5C384.877 4.16313 397.921 10.6966 402 12.5Z" fill="#BDC1C3"/>
<path d="M405.5 143.5C400.312 145.943 372 161 372 161C372 161 387.95 157.497 394.095 156.421C400.241 155.346 409.255 152.881 417.5 152.5C425.745 152.119 425.352 151.959 433 152.5C440.648 153.041 443.675 152.964 448 155C452.325 157.036 453.354 157.93 459.392 160.416C465.431 162.902 469.964 162.385 472.606 161.184C475.248 159.983 476.964 156.69 477.522 152.887C478.081 149.085 477.522 144.13 475.5 140C473.478 135.87 467.996 131.531 462 130.5C456.004 129.469 445.258 130.302 438 132C430.742 133.698 410.688 141.057 405.5 143.5Z" fill="#BDC1C3"/>
<path fill-rule="evenodd" clip-rule="evenodd" d="M540 52C543.025 51.6688 546.032 53.0584 548 54.5C549.968 55.9416 551.304 58.3449 552.5 61C553.696 63.6551 553.841 66.3563 552.906 69.5608C551.971 72.7653 550.236 77.038 546.5 78.5C546.215 78.6115 545.944 78.7193 545.684 78.8227C542.537 80.0738 541.026 80.6748 536.216 79.4414C531.074 78.1231 530.228 77.0651 528.665 75.1108L528.605 75.0352C527.003 73.0324 525.667 68.4926 526 65.5C526.063 64.931 526.095 64.45 526.124 64.0184C526.246 62.1804 526.309 61.2391 528.471 58.2114C530.431 55.4681 530.737 55.3129 531.869 54.7389C532.279 54.5307 532.799 54.2673 533.545 53.8052C535.858 52.3732 536.689 52.3007 538.608 52.1333C539.015 52.0978 539.471 52.058 540 52ZM534.534 65.1043C534.643 63.7606 534.683 63.2607 536.883 61.5495C539.287 59.6802 542.358 60.7483 542.358 60.7483C542.358 60.7483 543.966 61.9318 545.295 63.2853C546.624 64.6387 546.363 66.4898 545.5 68C544.637 69.5102 543.426 71.0295 541 71.5C538.765 71.9335 537.834 71.282 536.383 70.267C536.26 70.1805 536.132 70.0913 536 70C534.316 68.8369 534.346 67.1574 534.5 65.5C534.513 65.3598 534.524 65.2284 534.534 65.1043Z" fill="#BDC1C3"/>
<path d="M162.5 108.5C160.5 111.5 142.196 134.5 136 141C129.804 147.5 115 157 108 160.5C101 164 82.5 167.5 69.5 170C56.5 172.5 32.5 175.5 32.5 175.5C32.5 175.5 61 180.5 73 180.5C85 180.5 106 178.5 110 178C114 177.5 136 175.5 136 175.5C136 175.5 140.685 181.769 143.685 185.769C146.685 189.769 153.675 196.54 158.349 200.279C163.022 204.017 170.941 208.238 180 210C189.059 211.762 201.498 211.906 210.5 211.5C219.502 211.094 236.922 207.116 243.5 205.5C250.078 203.884 277.851 193.069 283.726 189.33C289.601 185.591 316.621 168.372 319 166.5C321.379 164.628 353 137 353 137C353 137 392.017 102.888 405.5 92.5C418.983 82.1119 448.133 64.5954 463 59C477.867 53.4046 506.972 42.7487 526 41C545.028 39.2513 590.5 41 590.5 41C590.5 41 575.605 61.8165 571 68.5C566.395 75.1835 553.5 99.5 553.5 99.5C553.5 99.5 555.853 98.2149 569 92.5C582.147 86.7851 617 78.5 617 78.5L621 61.5L569 84L625.5 23.5L565.323 21.4929C565.323 21.4929 529.588 21.7556 512.849 23.8963C496.111 26.0369 466.614 32.7924 452.23 38.9843C437.847 45.1761 402.827 67.1574 392 75.5C381.173 83.8426 360.367 102.941 357.029 106.146C353.691 109.35 313.635 148.472 307.5 152.5C301.365 156.528 269.305 178.915 261.962 182.52C254.618 186.125 231.919 193.469 223.374 195.071C214.828 196.674 197.604 196.941 187.5 196.5C177.396 196.059 161.019 192 153.5 187C145.981 182 140.5 170 140.5 170C140.5 170 153.5 153.5 157.5 147C161.5 140.5 170.5 118.5 173 112C175.5 105.5 181.5 80 181.5 80M162.5 108.5C164.5 105.5 181.5 80 181.5 80M162.5 108.5L181.5 80M528.605 75.0352C527.003 73.0324 525.667 68.4926 526 65.5C526.063 64.931 526.095 64.45 526.124 64.0184C526.246 62.1804 526.309 61.2391 528.471 58.2114C530.431 55.4681 530.737 55.3129 531.869 54.7389C532.279 54.5307 532.799 54.2673 533.545 53.8052C535.858 52.3732 536.689 52.3007 538.608 52.1333C539.015 52.0978 539.471 52.058 540 52C543.025 51.6688 546.032 53.0584 548 54.5C549.968 55.9416 551.304 58.3449 552.5 61C553.696 63.6551 553.841 66.3563 552.906 69.5608C551.971 72.7653 550.236 77.038 546.5 78.5C546.215 78.6115 545.944 78.7193 545.684 78.8227C542.537 80.0738 541.026 80.6748 536.216 79.4414C531.074 78.1231 530.228 77.0651 528.665 75.1108M528.605 75.0352L528.665 75.1108M528.605 75.0352C528.625 75.0605 528.645 75.0857 528.665 75.1108M536.883 61.5495C539.287 59.6802 542.358 60.7483 542.358 60.7483C542.358 60.7483 543.966 61.9318 545.295 63.2853C546.624 64.6387 546.363 66.4898 545.5 68C544.637 69.5102 543.426 71.0295 541 71.5C538.765 71.9335 537.834 71.282 536.383 70.267C536.26 70.1805 536.132 70.0913 536 70C534.316 68.8369 534.346 67.1574 534.5 65.5C534.513 65.3598 534.524 65.2284 534.534 65.1043C534.643 63.7606 534.683 63.2607 536.883 61.5495ZM429 29.5C429 29.5 406.079 14.3034 402 12.5C397.921 10.6966 384.877 4.16313 374.5 2.5C364.123 0.836871 343 0.5 343 0.5C343 0.5 355.172 6.38396 359.5 8.5C363.828 10.616 374.118 18.4808 377.5 22C380.882 25.5192 386 34.5 386 34.5C386 34.5 373.046 43.0342 362.292 51.1772C351.537 59.3202 343.394 68.385 340 73C336.606 77.615 330.635 90.625 327.415 96.5012C324.195 102.377 314.5 130.5 314.5 130.5C314.5 130.5 332.137 106.962 335 102.5C337.863 98.0376 343.094 87.5395 353 78.5C362.906 69.4605 386.413 52.8673 386.413 52.8673L415.5 36.5L429 29.5ZM372 161C372 161 400.312 145.943 405.5 143.5C410.688 141.057 430.742 133.698 438 132C445.258 130.302 456.004 129.469 462 130.5C467.996 131.531 473.478 135.87 475.5 140C477.522 144.13 478.081 149.085 477.522 152.887C476.964 156.69 475.248 159.983 472.606 161.184C469.964 162.385 465.431 162.902 459.392 160.416C453.354 157.93 452.325 157.036 448 155C443.675 152.964 440.648 153.041 433 152.5C425.352 151.959 425.745 152.119 417.5 152.5C409.255 152.881 400.241 155.346 394.095 156.421C387.95 157.497 372 161 372 161Z" stroke="#C0C4C6"/>
</svg>
