<svg width="866" height="302" viewBox="0 0 866 302" fill="none" xmlns="http://www.w3.org/2000/svg">
<path d="M179.697 39.4304V0.651123H57.5839C50.9832 3.95148 44.5655 9.7664 41.0821 13.0275C37.5987 16.2886 32.866 20.5572 27.8806 28.7042C22.8952 36.8512 23.4383 43.8425 23.7791 50.6577C24.1198 57.4729 25.3276 66.2286 27.8806 71.6089C30.4336 76.9892 34.6532 84.7211 41.0821 89.7609C47.5109 94.8007 61.7093 102.137 61.7093 102.137C61.7093 102.137 76.541 109.755 79.8613 112.038C83.1817 114.322 94.6904 122.44 97.1882 124.415C99.6861 126.39 104.833 130.471 105.188 135.086C105.542 139.7 103.413 145.024 101.461 147.331C99.5086 149.638 97.7339 153.01 92.2377 153.293H0.652649V193.722H116.165C119.196 193.099 126.909 190.523 131.017 187.122C135.125 183.72 141.985 175.881 143.393 173.92C144.801 171.96 149.863 165.112 152.096 159.455C154.329 153.798 156.011 144.48 155.916 140.288C155.821 136.095 154.582 124.471 152.469 119.464C150.356 114.457 142.958 105.796 139.268 102.137C135.578 98.4786 126.95 92.7422 121.941 89.7609C116.931 86.7796 101.314 80.6849 101.314 80.6849C101.314 80.6849 85.8839 73.1142 83.9868 71.6089C82.0897 70.1037 75.4029 66.4444 73.2114 62.919C71.0199 59.3936 70.6388 52.5333 72.3539 48.6267C74.0689 44.7201 80.9292 40.8136 83.9868 39.4304H179.697Z" fill="#EE5A14"/>
<path d="M300.986 39.4304V0.651123H256.431C251.613 1.11118 244.542 4.0377 238.29 6.86617C232.037 9.69464 223.701 16.3937 219.979 19.8176C216.257 23.2415 207.623 32.4713 203.901 38.8726C200.18 45.2738 194.523 61.7981 193.481 65.5197C192.439 69.2414 188.866 84.1281 187.526 90.6782C186.186 97.2284 184.251 114.795 183.823 119.464C183.395 124.134 183.804 142.633 184.4 148.141C184.995 153.649 186.584 169.331 187.948 173.92C189.312 178.51 194.549 193.722 194.549 193.722H234.153C234.153 193.722 226.38 176.277 224.594 170.918C222.807 165.558 221.777 148.342 221.777 148.342V128.54H260.556V193.722H300.986V54.282H260.556V86.4605H227.552C227.552 86.4605 226.644 77.6149 228.241 72.9695C229.837 68.3241 234.047 61.5012 236.225 58.743C238.402 55.9848 243.338 50.6136 247.403 47.1295C251.468 43.6455 260.556 39.4304 260.556 39.4304H300.986Z" fill="#EE5A14"/>
<path d="M356.267 0.651123H320.788V193.722H358.742L356.267 75.7344L396.696 132.666V193.722H437.125V0.651123H396.696V66.6584L356.267 0.651123Z" fill="#EE5A14"/>
<path d="M485.806 0.651123H450.327L490.756 193.722H545.212L586.467 0.651123H550.988L517.159 121.114L485.806 0.651123Z" fill="#EE5A14"/>
<path d="M701.154 0.651123H600.493V193.722H701.154V154.943H637.622V121.114H678.052V75.7344H637.622V39.4304H701.154V0.651123Z" fill="#EE5A14"/>
<path d="M718.481 193.722V0.651123H809.241C813.1 1.41903 829.755 6.27443 833.875 9.42563C837.996 12.5768 846.04 23.0756 848.864 26.482C851.689 29.8884 858.813 45.2954 860.752 52.325C862.691 59.3546 862.792 77.6538 862.792 77.6538C862.792 77.6538 860.713 95.5931 858.168 101.168C855.623 106.744 849.029 118.44 843.696 123.652C838.363 128.863 818.317 137.616 818.317 137.616L856.271 193.722H804.291L767.987 137.616V101.312H804.291C804.291 101.312 812.979 96.9246 817.221 91.2282C821.463 85.5318 822.311 81.6534 822.917 74.139C823.523 66.6246 822.62 60.8279 821.618 56.7573C820.615 52.6866 818.313 44.8389 814.192 39.4304C810.07 34.0218 800.859 30.3858 798.515 30.3544H758.911V193.722H718.481Z" fill="#EE5A14"/>
<path d="M490.756 296.034V218.475H545.212V230.851H506.433V250.654H539.437V263.855H506.433V296.034H490.756Z" fill="#EE5A14"/>
<path d="M649.174 300.984V218.475H687.953C687.953 218.475 694.655 220.523 697.854 222.6C701.053 224.678 707.673 231.627 708.58 234.152C709.487 236.676 711.269 245.586 710.913 249.149C710.557 252.713 707.587 259.009 705.211 261.86C702.835 264.712 694.554 268.806 694.554 268.806L713.531 300.984H697.854L678.877 274.581V257.254H687.953C687.953 257.254 693.094 253.307 694.163 251.525C695.232 249.743 695.351 244.041 694.401 241.784C693.45 239.527 691.193 237.864 689.174 236.439C687.154 235.013 683.002 234.152 683.002 234.152H664.025V300.984H649.174Z" fill="#EE5A14"/>
<path d="M729.207 230.851V218.475H786.139V230.851H763.036V300.984H748.185V230.851H729.207Z" fill="#EE5A14"/>
<path d="M807.591 300.984V218.475H865.347V230.851H818.317V250.654H857.922V264.68H818.317V285.307H865.347V300.984H807.591Z" fill="#EE5A14"/>
<path fill-rule="evenodd" clip-rule="evenodd" d="M596.345 218.375C593.149 218.375 578.199 221.342 575.741 222.6C573.282 223.858 565.303 233.44 564.189 235.802C563.076 238.164 562.847 282.623 564.189 285.307C565.531 287.991 576.678 297.043 580.691 298.509C584.704 299.974 594.331 301.212 598.97 301.344C603.609 301.475 613.35 299.061 616.545 297.464C619.741 295.866 628.09 287.133 629.669 283.769C631.249 280.404 629.555 239.26 629.327 236.179C629.099 233.097 619.512 223.967 616.17 222.6C612.828 221.234 599.54 218.375 596.345 218.375ZM604.448 235.95C602.964 235.608 590.753 235.494 589.497 236.065C588.242 236.635 582.992 242.227 582.65 244.167C582.308 246.108 581.851 272.128 582.992 274.639C584.134 277.149 587.298 280.93 589.767 282.007C592.236 283.084 603.078 282.627 605.247 281.714C607.415 280.801 610.459 276.35 611.22 274.581C611.98 272.813 611.524 247.021 611.22 244.878C610.915 242.735 605.931 236.293 604.448 235.95Z" fill="#EE5A14"/>
<path d="M179.697 39.4304V0.651123H57.5839C50.9832 3.95148 44.5655 9.7664 41.0821 13.0275C37.5987 16.2886 32.866 20.5572 27.8806 28.7042C22.8952 36.8512 23.4383 43.8425 23.7791 50.6577C24.1198 57.4729 25.3276 66.2286 27.8806 71.6089C30.4336 76.9892 34.6532 84.7211 41.0821 89.7609C47.5109 94.8007 61.7093 102.137 61.7093 102.137C61.7093 102.137 76.541 109.755 79.8613 112.038C83.1817 114.322 94.6904 122.44 97.1882 124.415C99.6861 126.39 104.833 130.471 105.188 135.086C105.542 139.7 103.413 145.024 101.461 147.331C99.5086 149.638 97.7339 153.01 92.2377 153.293H0.652649V193.722H116.165C119.196 193.099 126.909 190.523 131.017 187.122C135.125 183.72 141.985 175.881 143.393 173.92C144.801 171.96 149.863 165.112 152.096 159.455C154.329 153.798 156.011 144.48 155.916 140.288C155.821 136.095 154.582 124.471 152.469 119.464C150.356 114.457 142.958 105.796 139.268 102.137C135.578 98.4786 126.95 92.7422 121.941 89.7609C116.931 86.7796 101.314 80.6849 101.314 80.6849C101.314 80.6849 85.8839 73.1142 83.9868 71.6089C82.0897 70.1037 75.4029 66.4444 73.2114 62.919C71.0199 59.3936 70.6388 52.5333 72.3539 48.6267C74.0689 44.7201 80.9292 40.8136 83.9868 39.4304H179.697Z" stroke="#EE5A14"/>
<path d="M300.986 39.4304V0.651123H256.431C251.613 1.11118 244.542 4.0377 238.29 6.86617C232.037 9.69464 223.701 16.3937 219.979 19.8176C216.257 23.2415 207.623 32.4713 203.901 38.8726C200.18 45.2738 194.523 61.7981 193.481 65.5197C192.439 69.2414 188.866 84.1281 187.526 90.6782C186.186 97.2284 184.251 114.795 183.823 119.464C183.395 124.134 183.804 142.633 184.4 148.141C184.995 153.649 186.584 169.331 187.948 173.92C189.312 178.51 194.549 193.722 194.549 193.722H234.153C234.153 193.722 226.38 176.277 224.594 170.918C222.807 165.558 221.777 148.342 221.777 148.342V128.54H260.556V193.722H300.986V54.282H260.556V86.4605H227.552C227.552 86.4605 226.644 77.6149 228.241 72.9695C229.837 68.3241 234.047 61.5012 236.225 58.743C238.402 55.9848 243.338 50.6136 247.403 47.1295C251.468 43.6455 260.556 39.4304 260.556 39.4304H300.986Z" stroke="#EE5A14"/>
<path d="M356.267 0.651123H320.788V193.722H358.742L356.267 75.7344L396.696 132.666V193.722H437.125V0.651123H396.696V66.6584L356.267 0.651123Z" stroke="#EE5A14"/>
<path d="M485.806 0.651123H450.327L490.756 193.722H545.212L586.467 0.651123H550.988L517.159 121.114L485.806 0.651123Z" stroke="#EE5A14"/>
<path d="M701.154 0.651123H600.493V193.722H701.154V154.943H637.622V121.114H678.052V75.7344H637.622V39.4304H701.154V0.651123Z" stroke="#EE5A14"/>
<path d="M718.481 193.722V0.651123H809.241C813.1 1.41903 829.755 6.27443 833.875 9.42563C837.996 12.5768 846.04 23.0756 848.864 26.482C851.689 29.8884 858.813 45.2954 860.752 52.325C862.691 59.3546 862.792 77.6538 862.792 77.6538C862.792 77.6538 860.713 95.5931 858.168 101.168C855.623 106.744 849.029 118.44 843.696 123.652C838.363 128.863 818.317 137.616 818.317 137.616L856.271 193.722H804.291L767.987 137.616V101.312H804.291C804.291 101.312 812.979 96.9246 817.221 91.2282C821.463 85.5318 822.311 81.6534 822.917 74.139C823.523 66.6246 822.62 60.8279 821.618 56.7573C820.615 52.6866 818.313 44.8389 814.192 39.4304C810.07 34.0218 800.859 30.3858 798.515 30.3544H758.911V193.722H718.481Z" stroke="#EE5A14"/>
<path d="M490.756 296.034V218.475H545.212V230.851H506.433V250.654H539.437V263.855H506.433V296.034H490.756Z" stroke="#EE5A14"/>
<path d="M649.174 300.984V218.475H687.953C687.953 218.475 694.655 220.523 697.854 222.6C701.053 224.678 707.673 231.627 708.58 234.152C709.487 236.676 711.269 245.586 710.913 249.149C710.557 252.713 707.587 259.009 705.211 261.86C702.835 264.712 694.554 268.806 694.554 268.806L713.531 300.984H697.854L678.877 274.581V257.254H687.953C687.953 257.254 693.094 253.307 694.163 251.525C695.232 249.743 695.351 244.041 694.401 241.784C693.45 239.527 691.193 237.864 689.174 236.439C687.154 235.013 683.002 234.152 683.002 234.152H664.025V300.984H649.174Z" stroke="#EE5A14"/>
<path d="M729.207 230.851V218.475H786.139V230.851H763.036V300.984H748.185V230.851H729.207Z" stroke="#EE5A14"/>
<path d="M807.591 300.984V218.475H865.347V230.851H818.317V250.654H857.922V264.68H818.317V285.307H865.347V300.984H807.591Z" stroke="#EE5A14"/>
<path fill-rule="evenodd" clip-rule="evenodd" d="M596.345 218.375C593.149 218.375 578.199 221.342 575.741 222.6C573.282 223.858 565.303 233.44 564.189 235.802C563.076 238.164 562.847 282.623 564.189 285.307C565.531 287.991 576.678 297.043 580.691 298.509C584.704 299.974 594.331 301.212 598.97 301.344C603.609 301.475 613.35 299.061 616.545 297.464C619.741 295.866 628.09 287.133 629.669 283.769C631.249 280.404 629.555 239.26 629.327 236.179C629.099 233.097 619.512 223.967 616.17 222.6C612.828 221.234 599.54 218.375 596.345 218.375ZM604.448 235.95C602.964 235.608 590.753 235.494 589.497 236.065C588.242 236.635 582.992 242.227 582.65 244.167C582.308 246.108 581.851 272.128 582.992 274.639C584.134 277.149 587.298 280.93 589.767 282.007C592.236 283.084 603.078 282.627 605.247 281.714C607.415 280.801 610.459 276.35 611.22 274.581C611.98 272.813 611.524 247.021 611.22 244.878C610.915 242.735 605.931 236.293 604.448 235.95Z" stroke="#EE5A14"/>
</svg>
