<svg width="822" height="265" viewBox="0 0 822 265" fill="none" xmlns="http://www.w3.org/2000/svg">
<path d="M94.4754 47.4818C94.4754 47.4818 89.6488 55.9452 89.0701 63.0593C88.4914 70.1734 88.6912 84.0557 88.6912 84.0557V265H135.608L135.006 83.5696C135.006 83.5696 135.644 72.359 137.431 67.518C139.217 62.6771 142.332 58.7486 146.235 55.2883C150.138 51.8279 156.826 48.0269 163.243 47.4818H261.575V0H164.529C164.529 0 151.722 3.56659 149.747 4.49153C149.171 4.76105 147.668 5.3791 145.706 6.18611C140.935 8.14853 133.447 11.2283 129.967 13.1312C125.056 15.8165 113.971 22.0559 107.329 28.2324C100.688 34.4089 94.4754 47.4818 94.4754 47.4818Z" fill="#356CBF"/>
<path d="M0 0V47.4818H94.4754C94.4754 47.4818 100.688 34.4089 107.329 28.2324C113.971 22.0559 125.056 15.8165 129.967 13.1312C133.447 11.2283 140.935 8.14853 145.706 6.18611C147.668 5.3791 149.171 4.76105 149.747 4.49153C151.722 3.56659 164.529 0 164.529 0H0Z" fill="#04A5AF"/>
<path d="M301.421 0L300.775 200.832C301.946 207.541 303.356 216.332 307.611 222.948C311.866 229.563 318.796 237.245 324.84 242.06C330.884 246.874 335.886 251.974 341.268 254.734C346.65 257.494 360.465 264.473 365.69 265H486.516V219.443H370.189L369.821 219.332C364.003 217.576 361.008 216.672 355.139 211.463C349.146 206.146 347.815 203.487 345.124 195.061V50.6901C345.124 50.6901 339.863 39.5968 336.33 34.6533C332.798 29.7098 321.517 17.3711 318.131 14.1162C314.746 10.8613 301.421 0 301.421 0Z" fill="#00A7AA"/>
<path fill-rule="evenodd" clip-rule="evenodd" d="M524.435 219.443V265C524.435 265 543.797 264.576 553.998 259.867C564.2 255.158 577.269 244.902 582.919 239.976C588.57 235.049 593.605 225.196 597.059 219.443C600.512 213.69 603.877 202.675 604.128 195.061V161.053H772.513V265H822V64.8063C821.357 59.6731 811.126 42.2123 807.218 37.2155C803.31 32.2187 791.993 19.4901 784.081 14.1162C776.17 8.74239 760.774 1.5938 755.16 0.641647H619.553C614.753 0.78947 600.252 10.0392 593.605 15.6695C587.089 21.1897 577.668 32.1223 573.521 36.935L573.279 37.2155C569.267 41.8706 559.783 59.6731 559.14 64.8063V195.061C557.352 201.067 553.726 203.681 550.142 207.252C546.558 210.823 541.642 212.327 537.931 214.31C534.22 216.293 524.435 219.443 524.435 219.443ZM772.513 110.363H604.128V67.3729L604.317 67.0375C607.342 60.9564 608.018 60.4557 614.411 54.54C620.997 48.4458 626.032 45.4296 631.121 44.2736H746.805C751.711 45.0274 757.35 47.2393 763.393 53.2717C769.435 59.3042 771.449 63.728 772.513 67.3729V110.363Z" fill="#BBD625"/>
</svg>
